<?xml version="1.0" encoding="UTF-8" standalone="no"?>
<!-- Created with Inkscape (http://www.inkscape.org/) -->

<svg
   version="1.1"
   id="svg1"
   width="1119.812"
   height="1277.5601"
   viewBox="0 0 1119.812 1277.5601"
   sodipodi:docname="bob_preview.svg"
   inkscape:version="1.3 (0e150ed, 2023-07-21)"
   xmlns:inkscape="http://www.inkscape.org/namespaces/inkscape"
   xmlns:sodipodi="http://sodipodi.sourceforge.net/DTD/sodipodi-0.dtd"
   xmlns="http://www.w3.org/2000/svg"
   xmlns:svg="http://www.w3.org/2000/svg">
  <defs
     id="defs1">
    <inkscape:path-effect
       effect="perspective-envelope"
       up_left_point="740.20661,291.41887"
       up_right_point="1056.9617,269.19282"
       down_left_point="739.73263,501.50147"
       down_right_point="1050.5621,505.68652"
       id="path-effect3"
       is_visible="true"
       lpeversion="1"
       deform_type="perspective"
       horizontal_mirror="false"
       vertical_mirror="false"
       overflow_perspective="false" />
    <rect
       x="706.55304"
       y="303.13345"
       width="374.18759"
       height="220.39075"
       id="rect2" />
    <rect
       x="706.55304"
       y="303.13345"
       width="374.18759"
       height="220.39075"
       id="rect3" />
  </defs>
  <sodipodi:namedview
     id="namedview1"
     pagecolor="#ffffff"
     bordercolor="#000000"
     borderopacity="0.25"
     inkscape:showpageshadow="2"
     inkscape:pageopacity="0.0"
     inkscape:pagecheckerboard="0"
     inkscape:deskcolor="#d1d1d1"
     inkscape:zoom="0.22503047"
     inkscape:cx="744.34364"
     inkscape:cy="766.56286"
     inkscape:window-width="2560"
     inkscape:window-height="1379"
     inkscape:window-x="0"
     inkscape:window-y="0"
     inkscape:window-maximized="1"
     inkscape:current-layer="layer1" />
  <g
     inkscape:groupmode="layer"
     id="layer1"
     inkscape:label="Layer 1"
     transform="translate(-0.05318081,0.454546)">
    <g
       id="g4"
       style="fill:#000000;stroke:none;stroke-width:30;stroke-dasharray:none;paint-order:stroke fill markers">
      <path
         style="fill:#000000;stroke:none;stroke-width:30;stroke-dasharray:none;paint-order:stroke fill markers"
         d="m 458.41924,1261.5375 c -13.14186,-0.8033 -14.54429,-1.1554 -18.07296,-4.5376 -4.08573,-3.916 -8.34627,-4.8502 -8.34627,-1.8299 0,1.0102 -0.94289,2.6193 -2.09532,3.5757 -3.21771,2.6705 -37.56198,-0.4703 -40.79805,-3.7309 -1.78842,-1.802 -2.54558,-5.7072 -3.25526,-16.7897 -0.58975,-9.2098 -1.57376,-15.0904 -2.71623,-16.2329 -3.78086,-3.7809 -4.66351,-9.6008 -4.34638,-28.6589 0.28381,-17.0559 -0.23072,-22.4748 -4.36772,-46 -4.17531,-23.7432 -4.98105,-26.7105 -7.34936,-27.0658 -2.41593,-0.3625 -3.35854,2.442 -10.27588,30.5728 -5.6184,22.8484 -7.39612,32.273 -6.77782,35.9327 1.34818,7.9798 -3.10602,27.5159 -7.39526,32.4355 -3.27696,3.7586 -3.65296,5.3306 -4.23597,17.7098 -0.98938,21.0082 -1.73713,21.5653 -29.71779,22.1408 -12.67261,0.2606 -13.39617,0.126 -14.64951,-2.7258 -1.66846,-3.7964 -2.72772,-3.7631 -7.47988,0.2356 -5.4595,4.5939 -11.43869,5.0177 -63.87291,4.5276 -43.5919,-0.4074 -46.24426,-0.5734 -50.66592,-3.1709 -6.69966,-3.9356 -10.61857,-11.5664 -10.64548,-20.7285 -0.0405,-13.8082 8.02722,-20.6271 32.2738,-27.2778 7.12931,-1.9555 13.63645,-4.3677 14.4603,-5.3604 1.12633,-1.3571 0.9008,-3.3684 -0.9091,-8.1076 -2.48617,-6.5099 -3.1173,-19.5344 -1.26098,-26.0225 0.73187,-2.558 -0.90412,-10.8799 -5.76659,-29.3334 -3.73358,-14.1692 -9.40713,-37.4357 -12.60788,-51.7035 -3.55779,-15.8592 -6.54346,-26.3229 -7.68218,-26.9231 -1.02445,-0.54 -11.21147,-5.4581 -22.63783,-10.9291 -11.42635,-5.471 -21.77635,-10.9485 -23,-12.1721 -4.77041,-4.7704 -2.19882,-19.8942 9.71597,-57.14075 3.71345,-11.60852 6.38434,-21.70086 5.93531,-22.42741 -0.4657,-0.75352 -2.99679,-0.95262 -5.892,-0.46348 -8.71996,1.47323 -22.65075,-8.06944 -22.65075,-15.51588 0,-3.35278 -0.52646,-3.72827 -6.33334,-4.51719 -9.58387,-1.30206 -10.45928,-1.69393 -17.820345,-7.97722 C 88.048742,923.53166 57.601053,891.14359 47.67543,878.66661 36.601546,864.74622 23.136891,844.07251 18.536451,833.92646 11.386597,818.15779 13.387271,811.98581 34.857114,783.57799 57.07983,754.174 115.9446,689.53665 147.16702,660.25441 c 9.62481,-9.02672 18.03021,-18.02672 18.67868,-20 0.64847,-1.97328 1.75313,-4.31513 2.45481,-5.2041 2.23117,-2.82673 15.52252,-7.09329 46.43343,-14.90524 17.64273,-4.45876 32.11334,-8.86328 35.01873,-10.65891 2.7233,-1.6831 6.59303,-3.49919 8.5994,-4.03578 2.00636,-0.53659 3.64794,-1.81233 3.64794,-2.83499 0,-1.02265 -7.5,-6.44843 -16.66667,-12.05727 -27.48684,-16.81847 -33.7561,-24.1066 -43.08927,-50.09204 -2.62119,-7.29792 -7.5774,-28.1849 -7.5774,-31.93346 0,-0.27836 -4.05,-2.34143 -9,-4.5846 -9.33896,-4.2321 -16.59959,-10.1453 -19.68608,-16.03274 -0.98555,-1.87991 -2.2009,-7.27991 -2.70078,-12 -0.71145,-6.71783 -2.01595,-10.31971 -6.00555,-16.58198 -5.3406,-8.38285 -15.04353,-27.7577 -16.29203,-32.53196 -0.40098,-1.53335 -1.53602,-3.02481 -2.52231,-3.31435 -15.19222,-4.45998 -25.98082,-12.7828 -31.30963,-24.15368 -2.52212,-5.38184 -3.11764,-8.85087 -3.09001,-18 0.0221,-7.32335 0.70843,-12.51274 1.93972,-14.66667 1.04803,-1.83333 1.92677,-3.74814 1.95276,-4.25514 0.026,-0.507 -3.61571,-2.87415 -8.09265,-5.26033 -9.334665,-4.97532 -17.207734,-14.96968 -17.173024,-21.80006 0.02565,-5.04738 0.969788,-6.46196 6.048742,-9.06272 6.399998,-3.27721 14.915522,-13.39293 16.696682,-19.83423 2.40392,-8.69345 2.01439,-14.94894 -1.96279,-31.52024 -4.102326,-17.09273 -5.834901,-36.93692 -4.687351,-53.68697 0.624079,-9.10926 1.559171,-12.84693 4.621841,-18.47407 5.13127,-9.42783 10.58727,-13.63242 26.28559,-20.25664 14.47902,-6.10971 25.23595,-14.57899 30.94041,-24.3604 1.7607,-3.01905 5.62995,-12.31407 8.59834,-20.65561 10.01021,-28.12994 20.5716,-44.937373 38.98936,-62.047834 26.54748,-24.663129 55.57431,-40.329219 93.84951,-50.651589 30.99065,-8.357812 42.96918,-10.255353 64.73855,-10.255353 21.57283,0 27.0294,0.988919 39.1604,7.09723 11.01004,5.543873 17.45861,10.132138 28.56503,20.324488 9.13727,8.38527 9.73231,8.700347 16.47414,8.72318 3.84696,0.01303 12.38342,0.590455 18.96991,1.28317 20.48589,2.154545 36.98173,12.346017 45.51354,28.11922 3.74632,6.926009 4.07136,7.164082 12.74561,9.335372 30.16312,7.550264 44.42179,22.820426 55.68151,59.631496 4.60621,15.05894 9.65851,22.30195 18.81491,26.9732 7.40198,3.77621 13.05396,9.01537 16.32746,15.1349 2.729,5.10162 2.94154,7.28122 2.94154,30.16561 0,24.31915 0.0526,24.77381 3.73478,32.27212 2.05414,4.18301 5.634,9.20355 7.95526,11.15676 3.73393,3.14189 5.02374,3.46838 11.18848,2.83213 5.12863,-0.52933 7.38879,-0.21215 8.56204,1.20152 2.50142,3.01403 0.63651,14.93631 -4.12576,26.3758 -5.45585,13.10553 -4.93222,14.55959 5.02637,13.95781 l 7.65883,-0.46281 0.40985,4.22665 c 0.41067,4.23499 -3.70516,13.59319 -8.98971,20.44001 -2.44728,3.17078 -2.47418,3.78849 -0.55151,12.66667 1.23956,5.72383 1.71213,12.07125 1.22196,16.41297 -1.01294,8.97223 -7.16251,21.2439 -13.38239,26.70503 -6.06738,5.32723 -16.93171,10.88199 -21.28363,10.88199 -3.58187,0 -6.09124,3.29912 -6.09124,8.00827 0,5.46223 -8.36933,28.03773 -14.16396,38.20598 -3.20982,5.63251 -5.83604,11.24265 -5.83604,12.46698 0,1.22433 1.78913,5.47191 3.97585,9.43908 7.60748,13.80159 4.52639,26.58382 -7.92409,32.87392 -4.85566,2.45312 -6.35454,4.13979 -8.29416,9.33333 -4.94765,13.24787 -16.21826,21.93883 -32.28258,24.89366 -4.40544,0.81033 -8.31765,2.32422 -8.9037,3.44544 -0.57495,1.1 -2.92332,6.19131 -5.21858,11.31403 -5.70133,12.7246 -12.81689,21.72935 -25.39051,32.13176 -5.84589,4.83643 -10.62656,9.48966 -10.62371,10.34052 0.003,0.85086 2.85286,6.32832 6.33334,12.17213 l 6.32814,10.62511 14.66666,2.39457 c 14.22265,2.32208 33.87601,12.42841 51.54276,21.10777 12.5268,7.98978 15.03683,18.18019 22.43108,28.83525 8.79839,12.6784 13.19503,28.31212 31.46559,49.29088 7.44538,8.54899 13.69407,23.09549 21.13604,34.26164 9.18376,13.77958 15.84948,30.26333 28.98565,40.34596 11.49704,8.82451 15.95728,30.71561 40.67006,15.37633 11.69861,-7.26136 50.0043,-30.97301 64.83128,-38.57443 14.82697,-7.60143 10.86793,-2.88526 14.91069,-3.85864 4.04277,-0.97338 11.33981,-45.16018 26.56967,-45.55241 19.36943,-0.49884 38.29618,13.75924 44.36116,13.95303 12.12996,0.38758 19.07795,9.65257 27.46529,25.52364 6.02026,11.39192 -10.84179,33.35433 -33.2295,55.80655 -5.95906,5.97623 -26.58934,12.14232 -33.38877,16.22479 -6.79944,4.08246 -0.63697,14.97981 -7.52714,17.98503 -13.77993,6.01045 -21.4709,9.46399 -31.73571,15.0488 -12.30872,6.69686 -41.36303,17.06497 -60.9051,27.94697 -19.54207,10.882 -40.2915,17.70658 -52.58127,8.13485 -12.08563,-9.41273 -54.48568,-28.7851 -63.55406,-39.64329 -12.16271,-14.56323 -23.07107,-18.39841 -33.69855,-28.60325 -6.19862,-5.95211 -13.90989,-18.54085 -17.46669,-18.9623 -9.24559,5.34837 2.49571,42.68088 5.27308,53.4858 l 24.93274,96.99703 c 0.4519,2.25949 2.0269,5.6404 3.5,7.51315 1.68107,2.13713 2.67837,5.41606 2.67837,8.80591 0,3.66405 0.90705,6.36643 2.82051,8.40321 2.65494,2.82606 2.70887,3.33982 0.91867,8.7526 -1.63421,4.94118 -1.6389,6.28028 -0.0333,9.51658 1.48822,2.9998 1.54859,4.5386 0.29664,7.5611 -1.36396,3.2929 -1.17914,4.3259 1.39753,7.811 2.41837,3.271 2.80593,5.0384 2.08857,9.5246 -0.70337,4.3986 3.21559,6.2381 1.8153,8.9358 -4.75923,9.1686 -18.85841,8.4442 -28.38771,12.4325 -10.32262,4.3204 -30.02983,11.3046 -31.17638,12.4512 -0.41632,0.4163 -2.73005,8.428 -5.14161,17.8039 -3.48779,13.56 -13.30908,47.8335 -24.63105,85.9553 -0.71646,2.4124 -0.46393,4.3637 0.77647,6 2.98094,3.9324 2.17943,9.8222 -2.68883,19.7583 -5.54843,11.3244 -5.36411,11.6274 9.74654,16.0205 5.95977,1.7327 14.58874,5.1369 19.17548,7.5649 10.34206,5.4747 14.35192,11.8649 15.36505,24.4864 0.90729,11.3029 -1.09302,16.0992 -7.49519,17.9719 -5.71738,1.6723 -78.27902,2.7662 -99.0941,1.4939 z M 172.66667,826.31711 c 0,-21.0711 -0.31556,-38.16246 -0.70125,-37.98079 -0.3857,0.18166 -8.3357,5.62066 -17.66667,12.08666 -10.47547,7.25908 -16.95408,12.61464 -16.93579,14 0.0163,1.234 4.18134,8.84363 9.25567,16.9103 5.07433,8.06667 11.9608,19.0607 15.30328,24.43118 4.35175,6.99211 6.73985,9.63664 8.411,9.31413 2.1582,-0.4165 2.33376,-3.33246 2.33376,-38.76148 z"
         id="path1"
         sodipodi:nodetypes="ssssssssssssssssssssssssssssssssssssssssssssssssssssssssssssssssssssssssssssssssssssssscsssssssssssssssssscscssaasssssssssszssacscssssssssaasssssssssssssssssss" />
      <path
         style="fill:#000000;stroke:none;stroke-width:30;stroke-dasharray:none;paint-order:stroke fill markers"
         d="m 822.94507,1120.5193 19.63003,-535.99846 -176.10853,-10.93575 3.46729,-300.51714 434.60054,-30.7086 -7.1322,350.8082 -194.48951,-6.57808 -17.78861,536.07243 z"
         id="path2"
         sodipodi:nodetypes="ccccccccc" />
    </g>
    <path
       d="m 754.59853,346.48104 c -0.0101,2.96607 1.23015,4.39103 3.72438,4.27577 l 22.67154,-1.04773 -0.11184,20.40386 -29.32976,1.12106 c -7.69659,0.29418 -11.51618,-4.49325 -11.49389,-14.3725 l 0.11364,-50.37032 c 0.0227,-10.04424 3.88931,-15.34283 11.63553,-15.88636 l 29.52164,-2.07148 -0.11292,20.60093 -23.00152,1.42844 c -2.33135,0.14478 -3.50072,1.77965 -3.51135,4.90367 z m 59.11367,3.66591 c 2.72818,-0.12402 4.10869,-1.88655 4.13721,-5.28877 l 0.13675,-16.31254 c 0.0262,-3.12228 -1.38941,-4.60465 -4.24203,-4.44624 l -8.69717,0.48298 c -2.35645,0.13086 -3.54457,1.82001 -3.56757,5.06638 l -0.11176,15.77537 c -0.025,3.52429 1.10731,5.23366 3.3999,5.12944 z m 19.4819,3.04177 c -0.097,10.10263 -4.1618,15.22867 -12.1577,15.38944 l -22.73515,0.86899 c -8.15823,0.31183 -12.19002,-4.27284 -12.13411,-13.76316 l 0.19996,-33.93858 c 0.0584,-9.91502 4.08063,-15.12933 12.1041,-15.6337 l 22.93869,-1.44195 c 8.09782,-0.43592 12.14737,4.39906 12.11077,14.49529 z m 78.73905,11.91513 -16.34529,0.62476 0.59975,-41.27222 c -0.0796,-3.21066 -1.47714,-4.77852 -4.18833,-4.70272 l -8.66734,0.48132 -0.62154,45.98583 -15.99232,0.61127 0.56008,-45.70558 -8.87612,0.49291 c -2.51632,0.13974 -3.72884,1.75335 -3.64122,4.84012 l -0.46053,40.84719 -15.83378,0.6052 0.49182,-49.05685 c 0.022,-2.19889 0.34512,-4.23297 0.96958,-6.10272 0.62493,-1.87115 1.4905,-3.50133 2.59721,-4.89059 1.16946,-1.468 2.51939,-2.61776 4.05028,-3.44884 1.59469,-0.90968 3.30934,-1.42255 5.14429,-1.53782 l 48.15072,-3.02478 c 2.03275,-0.12769 3.83952,0.17256 5.41925,0.90148 1.6452,0.72573 3.00016,1.77159 4.06395,3.13758 1.12956,1.2875 1.96714,2.89486 2.51224,4.82163 0.61038,1.84784 0.89891,3.82763 0.86551,5.93861 z m 23.71572,-77.55715 c -0.0523,2.97606 -1.31689,4.54392 -3.79031,4.70441 l -9.52576,0.61809 c -2.32262,0.15071 -3.45838,-1.25223 -3.41025,-4.20965 l 0.0871,-5.34958 c 0.0482,-2.96126 1.36259,-4.53295 3.94688,-4.71428 l 9.14933,-0.64199 c 2.47642,-0.17377 3.69012,1.22973 3.63772,4.20968 z m -17.96679,77.33741 1.07951,-66.33397 16.81004,-1.0567 -1.17431,66.75177 z m 76.57428,-54.88183 -1.15544,51.99913 -17.34573,0.663 0.88681,-42.52706 c -0.065,-3.30841 -1.53806,-4.9217 -4.41465,-4.83897 l -10.0927,0.56048 c -2.71862,0.15097 -4.04092,1.83156 -3.97097,5.04101 l -0.82394,42.46843 -17.0966,0.65347 0.92058,-50.99293 c 0.0413,-2.28603 0.40616,-4.40146 1.09507,-6.34681 0.68945,-1.94687 1.63677,-3.64385 2.84253,-5.09098 1.27416,-1.52924 2.74069,-2.72807 4.40013,-3.59606 1.72902,-0.94994 3.58451,-1.4876 5.56681,-1.61212 l 25.63061,-1.61009 c 2.15766,-0.13554 4.07301,0.17043 5.74489,0.91867 1.74144,0.74485 3.17296,1.82025 4.29357,3.22619 1.1909,1.32494 2.06999,2.98014 2.63674,4.96513 0.63651,1.90351 0.93064,3.94362 0.88229,6.11951 z m 43.27774,1.66943 -14.9531,0.83039 c -2.9786,0.16541 -4.507,1.97095 -4.59,5.41551 l -0.4294,17.81925 c -0.083,3.43305 1.4281,5.07832 4.5378,4.93695 l 14.7087,-0.66864 z m -37.1424,-2.25249 c 0.309,-10.60388 5.1545,-16.20732 14.5841,-16.79967 l 41.4224,-2.60211 -2.0986,77.55005 c -0.4645,11.95422 -6.1865,18.08214 -17.1029,18.39971 l -38.56817,1.12198 0.45652,-20.10979 33.51345,-1.218 c 2.3676,-0.0861 3.583,-1.30242 3.6431,-3.64965 l 0.045,-1.761 -22.945,0.87701 c -9.3052,0.35567 -13.87968,-4.87381 -13.76978,-15.69972 z M 817.84985,486.84413 c -0.0888,10.47392 -4.38506,15.64708 -12.84717,15.53315 l -34.77431,-0.46816 0.0933,-19.90306 28.81519,0.16232 c 2.43803,0.0137 3.67032,-1.56511 3.69341,-4.73777 l 0.0108,-1.48112 c 0.0226,-3.10443 -1.18796,-4.65893 -3.62819,-4.66235 l -16.86696,-0.0236 c -7.995,-0.0112 -11.95202,-4.65349 -11.90849,-13.93718 l 0.0925,-19.72967 c 0.0477,-10.16879 3.9233,-15.32805 11.66193,-15.46608 l 36.21209,-0.64588 -0.17354,20.47108 -29.15821,0.28965 c -2.47945,0.0246 -3.72605,1.51576 -3.7434,4.4724 l -0.007,1.16116 c -0.0202,3.44701 1.17773,5.16289 3.59728,5.14904 l 17.50417,-0.10019 c 7.79788,-0.0446 11.67409,4.70241 11.59332,14.23048 z m 33.3635,-2.44418 c 2.7794,0.0177 4.19069,-1.66292 4.22945,-5.04328 l 0.18584,-16.2078 c 0.0356,-3.10226 -1.4022,-4.64887 -4.30849,-4.6387 l -8.86063,0.031 c -2.40071,0.008 -3.61575,1.62605 -3.64842,4.85172 l -0.15877,15.67475 c -0.0355,3.50178 1.11301,5.25937 3.44855,5.27426 z m 19.83704,4.03043 c -0.12766,10.03724 -4.28313,14.92243 -12.42882,14.66877 l -23.16104,-0.31181 c -8.31064,-0.11189 -12.40421,-4.87725 -12.32028,-14.30726 l 0.30015,-33.72333 c 0.0877,-9.85228 4.19945,-14.82764 12.37355,-14.91492 l 23.37051,-0.24954 c 8.25047,-0.0154 12.36199,4.99982 12.29585,15.03413 z m 38.09066,-3.6613 c 2.90359,0.0185 4.38554,-1.69905 4.44116,-5.15413 l 0.26666,-16.5666 c 0.051,-3.17104 -1.44422,-4.75184 -4.48064,-4.74122 l -9.25643,0.0324 c -2.50771,0.009 -3.78404,1.66216 -3.8325,4.95889 l -0.23547,16.01947 c -0.0526,3.57868 1.13914,5.37501 3.57856,5.39056 z m 20.70876,4.12284 c -0.17857,10.25999 -4.54286,15.2522 -13.05276,14.99045 l -24.19212,-0.3257 c -8.67831,-0.11684 -12.93174,-4.98712 -12.80247,-14.62252 l 0.46233,-34.46046 c 0.13508,-10.0684 4.451,-15.15401 12.98858,-15.24517 l 24.41625,-0.2607 c 8.62162,-0.0178 12.89593,5.1087 12.78163,15.36727 z m 58.74189,-34.84405 -1.11853,50.78601 -17.10142,-0.23024 0.85823,-41.54141 c -0.0653,-3.2384 -1.51834,-4.89085 -4.35457,-4.95624 l -9.95161,0.0348 c -2.68074,0.009 -3.98406,1.5856 -3.91392,4.72773 l -0.79704,41.49064 -16.8611,-0.227 0.89012,-49.82568 c 0.0399,-2.23361 0.39904,-4.28387 1.0778,-6.15129 0.67928,-1.86886 1.61296,-3.4802 2.8016,-4.83403 1.25605,-1.43062 2.70191,-2.52831 4.33811,-3.29261 1.70477,-0.84088 3.53437,-1.27214 5.48915,-1.29293 l 25.27158,-0.2688 c 2.12717,-0.0226 4.01559,0.3741 5.66413,1.19086 1.71708,0.81698 3.12874,1.94136 4.23403,3.37308 1.17453,1.35609 2.04179,3.0192 2.60128,4.98886 0.62822,1.89354 0.91896,3.90322 0.87216,6.02824 z m 23.4136,46.67115 c -0.071,2.96282 -1.3957,4.42634 -3.9705,4.39168 l -9.91578,-0.1335 c -2.41758,-0.0325 -3.59155,-1.52045 -3.52505,-4.46479 l 0.28937,-12.81262 c 0.0667,-2.95174 1.44397,-4.42057 4.13581,-4.4054 l 9.53065,0.0537 c 2.5798,0.0145 3.8358,1.50749 3.7646,4.47781 z m -16.56764,-82.39193 19.68004,-0.35102 -5.3752,53.72041 -11.46842,-0.0165 z"
       id="text2"
       style="font-size:85.3333px;font-family:Kimberley;-inkscape-font-specification:Kimberley;text-align:center;text-anchor:middle;white-space:pre;fill:#ffffff;stroke-width:0.188976"
       transform="translate(-16.113647,24.542099)"
       aria-label="Coming&#10;Soon!"
       inkscape:path-effect="#path-effect3"
       inkscape:original-d="m 765.94539,360.20017 q 0,3.584 3.75467,3.584 h 22.52799 v 16.29866 h -29.26932 q -11.69066,0 -11.69066,-12.03199 v -40.70399 q 0,-12.11732 11.69066,-12.11732 h 29.26932 v 16.29865 h -22.78399 q -3.49867,0 -3.49867,3.75467 z m 58.11189,5.12 q 3.92534,0 3.92534,-4.01066 v -12.8 q 0,-3.66933 -4.096,-3.66933 h -8.36267 q -3.41333,0 -3.41333,3.84 v 12.45866 q 0,4.18133 3.328,4.18133 z m 18.60266,3.072 q 0,11.86133 -11.43466,11.69066 h -21.93066 q -11.94666,0 -11.94666,-11.34933 v -26.96532 q 0,-11.77599 11.69066,-11.77599 h 22.01599 q 11.52,0.0853 11.60533,11.86132 z m 72.53327,11.69066 h -14.67732 v -31.48799 q -0.17067,-3.66933 -3.84,-3.75466 h -7.85067 v 35.24265 H 874.1479 v -35.24265 h -8.192 q -3.49866,0 -3.328,3.584 v 31.65865 h -14.84799 v -38.22932 q 0,-2.55999 0.85333,-4.69333 0.85333,-2.13333 2.38933,-3.66933 1.62134,-1.62133 3.75467,-2.47466 2.21866,-0.93867 4.77866,-0.93867 h 43.94665 q 2.73067,0 4.864,0.93867 2.21867,0.93866 3.66933,2.55999 1.536,1.536 2.304,3.75467 0.85333,2.13333 0.85333,4.52266 z m 19.7972,-57.51464 q 0,3.328 -3.24267,3.328 h -8.36266 q -3.072,0 -3.072,-3.328 v -4.01067 q 0,-3.32799 3.41333,-3.32799 h 8.02133 q 3.24267,0 3.24267,3.32799 z m -14.67733,57.51464 v -50.09064 h 14.76266 v 50.09064 z m 65.19463,-38.22932 v 38.22932 h -14.67733 v -31.48799 q -0.17067,-3.66933 -3.84,-3.75466 h -8.61866 q -3.49867,0 -3.328,3.584 v 31.65865 h -14.84799 v -38.22932 q 0,-2.55999 0.85333,-4.69333 0.85333,-2.13333 2.38933,-3.66933 1.62133,-1.62133 3.75467,-2.47466 2.21866,-0.93867 4.77866,-0.93867 h 21.84532 q 2.73067,0 4.864,0.93867 2.21867,0.93866 3.66933,2.55999 1.536,1.536 2.304,3.75467 0.85334,2.13333 0.85334,4.52266 z m 35.75459,2.98667 h -12.2026 q -3.6694,0 -3.6694,3.75466 v 12.97067 q 0,3.75466 3.84,3.75466 h 12.032 z m -30.63463,-3.15733 q 0.0853,-11.60533 11.77603,-11.60533 h 33.6213 v 55.72264 q -0.1707,12.97066 -13.4827,12.97066 h -31.91463 v -14.84799 h 27.73333 q 2.9013,0 2.9013,-2.56 v -1.28 h -18.8586 q -11.60536,0 -11.77603,-11.94666 z m -161.493,132.43728 q 0,12.62933 -12.37333,12.62933 H 782.28669 V 470.4508 h 28.58666 q 3.58399,0 3.58399,-3.84 v -1.19467 q 0,-3.75466 -3.58399,-3.75466 h -16.64 q -11.94666,0 -11.94666,-11.34933 v -16.04266 q 0,-12.37333 11.52,-12.37333 h 35.32798 v 16.29866 h -28.41599 q -3.66933,0 -3.66933,3.584 v 0.93867 q 0,4.18133 3.584,4.18133 h 17.15199 q 11.34933,0 11.34933,11.43466 z m 31.82926,-2.13333 q 3.92533,0 3.92533,-4.01067 v -12.79999 q 0,-3.66933 -4.096,-3.66933 h -8.36266 q -3.41333,0 -3.41333,3.83999 v 12.45867 q 0,4.18133 3.32799,4.18133 z m 18.60266,3.072 q 0,11.86132 -11.43467,11.69066 h -21.93065 q -11.94667,0 -11.94667,-11.34933 v -26.96532 q 0,-11.776 11.69067,-11.776 h 22.01599 q 11.51999,0.0853 11.60533,11.86133 z m 34.81594,-3.072 q 3.92533,0 3.92533,-4.01067 v -12.79999 q 0,-3.66933 -4.096,-3.66933 h -8.36266 q -3.41334,0 -3.41334,3.83999 v 12.45867 q 0,4.18133 3.328,4.18133 z m 18.60265,3.072 q 0,11.86132 -11.43466,11.69066 h -21.93066 q -11.94666,0 -11.94666,-11.34933 v -26.96532 q 0,-11.776 11.69066,-11.776 h 22.016 q 11.51999,0.0853 11.60532,11.86133 z m 50.43194,-26.53866 v 38.22932 H 968.7398 v -31.48799 q -0.17067,-3.66933 -3.84,-3.75466 h -8.61867 q -3.49866,0 -3.32799,3.58399 v 31.65866 h -14.848 v -38.22932 q 0,-2.56 0.85333,-4.69333 0.85334,-2.13333 2.38934,-3.66933 1.62133,-1.62134 3.75466,-2.47467 2.21867,-0.93867 4.77867,-0.93867 h 21.84532 q 2.73067,0 4.864,0.93867 2.21866,0.93867 3.66933,2.56 1.536,1.536 2.304,3.75467 0.85333,2.13333 0.85333,4.52266 z m 20.65058,34.90132 q 0,3.328 -3.2426,3.328 h -8.36268 q -3.072,0 -3.072,-3.328 v -9.64266 q 0,-3.328 3.41333,-3.328 h 8.02135 q 3.2426,0 3.2426,3.328 z m -15.53061,-61.52531 h 16.46931 l -3.4133,39.85065 h -9.64268 z" />
  </g>
</svg>
