<?xml version="1.0" encoding="UTF-8" standalone="no"?>
<!-- Created with Inkscape (http://www.inkscape.org/) -->

<svg
   width="1.9926522in"
   height="1.7293921in"
   viewBox="0 0 1.9926522 1.729392"
   id="SVGRoot"
   version="1.1"
   inkscape:version="1.3 (0e150ed, 2023-07-21)"
   sodipodi:docname="logo.svg"
   inkscape:export-filename="business_card_template_v7-alt_simplified-d.png"
   inkscape:export-xdpi="192"
   inkscape:export-ydpi="192"
   xmlns:inkscape="http://www.inkscape.org/namespaces/inkscape"
   xmlns:sodipodi="http://sodipodi.sourceforge.net/DTD/sodipodi-0.dtd"
   xmlns="http://www.w3.org/2000/svg"
   xmlns:svg="http://www.w3.org/2000/svg">
  <sodipodi:namedview
     inkscape:document-units="in"
     inkscape:zoom="2.828427"
     inkscape:cx="130.10765"
     inkscape:cy="90.686449"
     id="namedview1"
     pagecolor="#ffffff"
     bordercolor="#000000"
     borderopacity="0.25"
     inkscape:showpageshadow="2"
     inkscape:pageopacity="0.0"
     inkscape:pagecheckerboard="0"
     inkscape:deskcolor="#d1d1d1"
     inkscape:window-width="2560"
     inkscape:window-height="1379"
     inkscape:window-x="0"
     inkscape:window-y="0"
     inkscape:window-maximized="1"
     inkscape:current-layer="text24"
     inkscape:lockguides="true"
     showguides="true"
     showgrid="false">
    <sodipodi:guide
       position="0,2"
       orientation="0,336"
       id="guide1"
       inkscape:locked="true" />
    <sodipodi:guide
       position="3.5,2"
       orientation="192,0"
       id="guide2"
       inkscape:locked="true" />
    <sodipodi:guide
       position="3.5,0"
       orientation="0,-336"
       id="guide3"
       inkscape:locked="true" />
    <sodipodi:guide
       position="0,0"
       orientation="-192,0"
       id="guide4"
       inkscape:locked="true" />
    <sodipodi:guide
       position="-0.125,2.125"
       orientation="216,0"
       id="guide5"
       inkscape:locked="true" />
    <sodipodi:guide
       position="-0.125,-0.125"
       orientation="0,360"
       id="guide6"
       inkscape:locked="true" />
    <sodipodi:guide
       position="3.625,-0.125"
       orientation="-216,0"
       id="guide7"
       inkscape:locked="true" />
    <sodipodi:guide
       position="3.625,2.125"
       orientation="0,-360"
       id="guide8"
       inkscape:locked="true" />
    <sodipodi:guide
       position="0.080000043,1.92"
       orientation="176.64001,0"
       id="guide9"
       inkscape:locked="true" />
    <sodipodi:guide
       position="0.080000043,0.079999924"
       orientation="0,320.64"
       id="guide10"
       inkscape:locked="true" />
    <sodipodi:guide
       position="3.4200001,0.079999924"
       orientation="-176.64001,0"
       id="guide11"
       inkscape:locked="true" />
    <sodipodi:guide
       position="3.4200001,1.92"
       orientation="0,-320.64"
       id="guide12"
       inkscape:locked="true" />
    <sodipodi:guide
       position="1.125,1.375"
       orientation="72,0"
       inkscape:locked="true"
       id="guide58" />
    <sodipodi:guide
       position="1.125,0.625"
       orientation="0,120"
       inkscape:locked="true"
       id="guide59" />
    <sodipodi:guide
       position="2.375,0.625"
       orientation="-72,0"
       inkscape:locked="true"
       id="guide60" />
    <sodipodi:guide
       position="2.375,1.375"
       orientation="0,-120"
       inkscape:locked="true"
       id="guide61" />
  </sodipodi:namedview>
  <defs
     id="defs1">
    <inkscape:path-effect
       effect="powerstroke"
       id="path-effect115"
       is_visible="true"
       lpeversion="1.3"
       scale_width="1"
       interpolator_type="CentripetalCatmullRom"
       interpolator_beta="0.2"
       start_linecap_type="zerowidth"
       end_linecap_type="zerowidth"
       offset_points="2.001006,0.026899537 | 2.9770505,0.0092368096 | 2.7726629,0.013956292 | 3.0343952,0.0096950026 | 3.2266173,0.013667391 | 0.00592958,0.028285663 | 1.0034467,0.01699955"
       linejoin_type="round"
       miter_limit="4"
       not_jump="false"
       sort_points="true"
       message="&lt;b&gt;Ctrl + click&lt;/b&gt; on existing node and move it" />
    <inkscape:path-effect
       effect="powerstroke"
       id="path-effect113"
       is_visible="true"
       lpeversion="1.3"
       scale_width="1"
       interpolator_type="CentripetalCatmullRom"
       interpolator_beta="0.2"
       start_linecap_type="zerowidth"
       end_linecap_type="zerowidth"
       offset_points="2.001006,0.026899537 | 2.9770505,0.0092368096 | 2.7726629,0.013956292 | 3.0343952,0.0096950026 | 3.2266173,0.013667391 | 0.00592958,0.028285663 | 1.0034467,0.01699955"
       linejoin_type="round"
       miter_limit="4"
       not_jump="false"
       sort_points="true"
       message="&lt;b&gt;Ctrl + click&lt;/b&gt; on existing node and move it" />
    <inkscape:path-effect
       effect="powerstroke"
       id="path-effect111"
       is_visible="true"
       lpeversion="1.3"
       scale_width="1"
       interpolator_type="CentripetalCatmullRom"
       interpolator_beta="0.2"
       start_linecap_type="butt"
       end_linecap_type="round"
       offset_points="0.19491179,0.019596486 | 0.50106835,0.029654352 | 0.8,0.039999999 | 0.9983071,0.011849122"
       linejoin_type="round"
       miter_limit="4"
       not_jump="false"
       sort_points="true"
       message="&lt;b&gt;Ctrl + click&lt;/b&gt; on existing node and move it" />
    <inkscape:path-effect
       effect="powerstroke"
       id="path-effect109"
       is_visible="true"
       lpeversion="1.3"
       scale_width="1"
       interpolator_type="CentripetalCatmullRom"
       interpolator_beta="0.2"
       start_linecap_type="butt"
       end_linecap_type="round"
       offset_points="0.19491179,0.019596486 | 0.50106835,0.029654352 | 0.8,0.039999999 | 0.9983071,0.011849122"
       linejoin_type="round"
       miter_limit="4"
       not_jump="false"
       sort_points="true"
       message="&lt;b&gt;Ctrl + click&lt;/b&gt; on existing node and move it" />
    <inkscape:path-effect
       effect="powerstroke"
       id="path-effect1"
       is_visible="true"
       lpeversion="1.3"
       scale_width="1"
       interpolator_type="CentripetalCatmullRom"
       interpolator_beta="0.2"
       start_linecap_type="zerowidth"
       end_linecap_type="zerowidth"
       offset_points="2.001006,0.026899537 | 2.9770505,0.0092368096 | 2.7726629,0.013956292 | 3.0343952,0.0096950026 | 3.2266173,0.013667391 | 0.00592958,0.028285663 | 1.0034467,0.01699955"
       linejoin_type="round"
       miter_limit="4"
       not_jump="false"
       sort_points="true"
       message="&lt;b&gt;Ctrl + click&lt;/b&gt; on existing node and move it" />
    <inkscape:path-effect
       effect="powerstroke"
       id="path-effect5"
       is_visible="true"
       lpeversion="1.3"
       scale_width="1"
       interpolator_type="CentripetalCatmullRom"
       interpolator_beta="0.2"
       start_linecap_type="butt"
       end_linecap_type="round"
       offset_points="0.19491179,0.019596486 | 0.50106835,0.029654352 | 0.8,0.039999999 | 0.9983071,0.011849122"
       linejoin_type="round"
       miter_limit="4"
       not_jump="false"
       sort_points="true"
       message="&lt;b&gt;Ctrl + click&lt;/b&gt; on existing node and move it" />
    <rect
       x="19.756104"
       y="46.011887"
       width="208.04594"
       height="197.63783"
       id="rect55" />
    <rect
       x="19.756104"
       y="46.011887"
       width="182.14967"
       height="47.948803"
       id="rect55-6" />
    <rect
       x="19.756104"
       y="46.011887"
       width="176.88699"
       height="51.825665"
       id="rect57" />
    <clipPath
       clipPathUnits="userSpaceOnUse"
       id="clipPath2">
      <path
         d="M 0,5000 H 5000 V 0 H 0 Z"
         transform="translate(-3625.0001,-1375.0001)"
         id="path2-6" />
    </clipPath>
    <rect
       x="19.756104"
       y="46.011887"
       width="155.62259"
       height="65.467857"
       id="rect5" />
    <rect
       x="19.756104"
       y="46.011887"
       width="176.88699"
       height="51.825665"
       id="rect120" />
    <rect
       x="19.756104"
       y="46.011887"
       width="182.14967"
       height="47.948803"
       id="rect121" />
    <rect
       x="19.756104"
       y="46.011887"
       width="201.54099"
       height="48.627068"
       id="rect122" />
    <rect
       x="19.756104"
       y="46.011887"
       width="176.88699"
       height="51.825665"
       id="rect57-1" />
    <rect
       x="19.756104"
       y="46.011887"
       width="176.88699"
       height="51.825665"
       id="rect120-7" />
    <inkscape:path-effect
       effect="powerstroke"
       id="path-effect5-3"
       is_visible="true"
       lpeversion="1.3"
       scale_width="1"
       interpolator_type="CentripetalCatmullRom"
       interpolator_beta="0.2"
       start_linecap_type="butt"
       end_linecap_type="round"
       offset_points="0.19491179,0.019596486 | 0.50106835,0.029654352 | 0.8,0.039999999 | 0.9983071,0.011849122"
       linejoin_type="round"
       miter_limit="4"
       not_jump="false"
       sort_points="true"
       message="&lt;b&gt;Ctrl + click&lt;/b&gt; on existing node and move it" />
    <inkscape:path-effect
       effect="powerstroke"
       id="path-effect1-9"
       is_visible="true"
       lpeversion="1.3"
       scale_width="1"
       interpolator_type="CentripetalCatmullRom"
       interpolator_beta="0.2"
       start_linecap_type="zerowidth"
       end_linecap_type="zerowidth"
       offset_points="2.001006,0.026899537 | 2.9770505,0.0092368096 | 2.7726629,0.013956292 | 3.0343952,0.0096950026 | 3.2266173,0.013667391 | 0.00592958,0.028285663 | 1.0034467,0.01699955"
       linejoin_type="round"
       miter_limit="4"
       not_jump="false"
       sort_points="true"
       message="&lt;b&gt;Ctrl + click&lt;/b&gt; on existing node and move it" />
    <inkscape:path-effect
       effect="powerstroke"
       id="path-effect1-9-0"
       is_visible="true"
       lpeversion="1.3"
       scale_width="1"
       interpolator_type="CentripetalCatmullRom"
       interpolator_beta="0.2"
       start_linecap_type="zerowidth"
       end_linecap_type="zerowidth"
       offset_points="2.001006,0.026899537 | 2.9770505,0.0092368096 | 2.7726629,0.013956292 | 3.0343952,0.0096950026 | 3.2266173,0.013667391 | 0.00592958,0.028285663 | 1.0034467,0.01699955"
       linejoin_type="round"
       miter_limit="4"
       not_jump="false"
       sort_points="true"
       message="&lt;b&gt;Ctrl + click&lt;/b&gt; on existing node and move it" />
    <inkscape:path-effect
       effect="powerstroke"
       id="path-effect5-3-2"
       is_visible="true"
       lpeversion="1.3"
       scale_width="1"
       interpolator_type="CentripetalCatmullRom"
       interpolator_beta="0.2"
       start_linecap_type="butt"
       end_linecap_type="round"
       offset_points="0.19491179,0.019596486 | 0.50106835,0.029654352 | 0.8,0.039999999 | 0.9983071,0.011849122"
       linejoin_type="round"
       miter_limit="4"
       not_jump="false"
       sort_points="true"
       message="&lt;b&gt;Ctrl + click&lt;/b&gt; on existing node and move it" />
    <rect
       x="19.756104"
       y="46.011887"
       width="208.04594"
       height="197.63783"
       id="rect16" />
    <rect
       x="19.756104"
       y="46.011887"
       width="208.04594"
       height="197.63783"
       id="rect24" />
  </defs>
  <g
     inkscape:groupmode="layer"
     id="layer4"
     inkscape:label="Logo"
     transform="translate(-0.07491371,-0.12273489)">
    <g
       id="g9"
       style="display:inline"
       transform="translate(0.00104749,-0.1524773)">
      <path
         id="path5"
         clip-path="url(#clipPath2)"
         style="fill:#000000;fill-opacity:1;fill-rule:nonzero;stroke:none"
         d="m -1124.9861,3375.0276 c -931.9811,0 -1363.3173,-755.5056 -1363.3173,-1687.4866 V 309.2077 l -512.802,-393.655286 c -101.869,-78.184494 -212.2341,-143.780854 0,-143.780854 h 1019.8135 c 60.3869,92.62818 136.7152,174.084813 227.7921,244.280233 120.718,92.666217 252.3696,151.869637 398.3661,180.977397 139.8307,27.87571 285.4386,32.52901 422.70593,3.53318 135.17579,-28.55368 259.72893,-90.09268 374.61536,-164.881792 51.35135,-33.42899 106.30201,-69.106081 151.82865,-110.313772 C -282.46467,4.3772423 -151.63924,76.031762 -29.307373,154.92545 58.804958,232.21967 148.58806,313.35928 239.11626,395.37806 V 1684.6948 c 0,931.9811 -432.12134,1690.3328 -1364.10236,1690.3328 z m 0,-562.561 c 620.31233,0 1125.02376063,-504.5892 1125.02376063,-1124.9256 V 307.83368 H -2250.01 V 1687.541 c 0,620.3364 504.7115,1124.9256 1125.0239,1124.9256 z M 258.94133,291.14921 C 181.27759,221.83239 102.37302,150.56792 26.340232,83.869245 L 16.231408,76.017731 C -116.96552,-9.891081 -248.80311,-101.63912 -383.01808,-187.49871 l -20.31579,-15.89931 -33.9578,22.47496 c -51.88776,51.14109 -115.3865,101.549366 -175.57948,140.738384 -105.22324,68.500934 -217.49553,116.390603 -340.65756,142.406836 -125.07669,26.41758 -257.92389,35.30881 -384.33159,10.10882 -131.9801,-26.31255 -251.1752,-83.804658 -359.9919,-167.335389 -64.2272,-49.501521 -118.0993,-108.868481 -164.6855,-173.224031 h 369.8063 c 67.2913,40.71716 138.5172,69.38439 216.7018,94.31632 81.0416,25.84512 164.8928,52.050932 254.0946,51.6237 12.4507,-0.0637 23.11138,-3.634683 36.21508,-4.318333 101.19784,-5.368223 207.58576,-25.817657 303.06844,-73.607947 36.07232,-18.03408 68.89286,-43.03859 101.97154,-67.52302 l 0.98144,-0.88329 564.818284,-0.98144 C 104.46402,-128.44714 223.36083,-28.254303 336.08246,64.534892 c 39.0846,26.603509 77.51312,52.507398 115.90797,78.515138 z M 528.24826,84.458108 C 482.11723,54.025763 435.88682,23.596863 391.63192,-6.52131 305.95905,-77.043596 216.15456,-152.68839 125.26931,-229.89688 l 626.64896,-1.07959 c 188.69048,-0.34268 148.68741,87.9432 0,143.780854 z M -1024.9775,-182.7878 c -78.4789,0.37651 -143.7043,-15.01353 -215.7203,-37.9817 -64.9052,-20.69651 -129.8535,-52.25402 -189.516,-89.31097 28.3316,-62.95988 103.3417,-134.35903 305.2277,-134.35903 74.781,0 131.91368,10.20553 176.1683,26.00814 30.24456,17.83019 59.84918,35.78137 90.09612,53.48844 53.18726,51.4643 57.41419,113.05716 57.41419,136.71448 h 13.44572 c -65.37268,23.77763 -134.90662,37.52548 -200.90061,41.02416 -11.07923,0.55936 -24.75782,4.33744 -36.21512,4.41648 z"
         transform="matrix(2.0729813e-4,0,0,-2.0729813e-4,0.72111971,1.621659)" />
      <path
         style="fill:#000000;fill-rule:nonzero;stroke:none;stroke-width:0.08;stroke-dasharray:none"
         d="m 0.8506248,1.0414292 c 0,-0.017335 -0.001185,-0.065465 0,-0.10401319 0.001487,-0.0483579 0.006636,-0.10924667 0.0100579,-0.16337812 0.003381,-0.0534944 0.0149873,-0.11212294 0.0103456,-0.15952259 -0.003842,-0.0392307 -0.0273695,-0.0998485 -0.0281509,-0.10582508 a 0.01185773,0.01185773 90 0 0 -0.0236982,-9.034e-4 c 0,1.5057e-4 7.097e-5,3.6056e-4 0,9.034e-4 -7.8134e-4,0.005977 -0.0243092,0.0665944 -0.0281509,0.10582508 -0.004642,0.0473997 0.006964,0.10602814 0.0103457,0.15952259 0.003422,0.0541314 0.008571,0.11502023 0.0100579,0.16337812 0.001185,0.0385482 0,0.0866777 0,0.10401319 z"
         id="path3"
         sodipodi:nodetypes="cc"
         transform="matrix(1.3676399,0,0,1.3676399,-0.64863809,-0.40365799)"
         inkscape:original-d="M 0.83102831,1.0414292 V 0.50778682"
         inkscape:path-effect="#path-effect5" />
      <path
         style="fill:#000000;fill-rule:nonzero;stroke:none;stroke-width:0.0674856;stroke-dasharray:none"
         id="path4"
         transform="matrix(1.3676399,0,0,1.3676399,-0.64863809,-0.45967032)"
         d="m 0.9371946,0.69817132 c -1.961e-5,1.7482e-4 -1.0089e-4,3.9889e-4 -1.2271e-4,0.001046 -1.047e-4,0.003107 0.001657,0.0202965 -0.005231,0.0415292 -0.003995,0.0123156 -0.0106815,0.0252982 -0.0209705,0.0372665 -0.009512,0.0110645 -0.0213092,0.020309 -0.0347714,0.0268695 -0.0150189,0.007319 -0.0305648,0.0105523 -0.0450706,0.0106204 -0.0165559,-3.131e-5 -0.0316399,-0.003892 -0.0450705,-0.0106206 -0.0135096,-0.006768 -0.025054,-0.0162759 -0.0342905,-0.0273503 -0.009382,-0.0112483 -0.0162394,-0.0239157 -0.0207934,-0.0370639 -0.004735,-0.0136713 -0.007009,-0.0279045 -0.007277,-0.0422972 -2.5565e-4,-0.0146556 0.00169,-0.0289401 0.006156,-0.0427713 0.004581,-0.0141875 0.0115552,-0.0270624 0.020316,-0.0381881 0.0106652,-0.0135442 0.0229124,-0.0231622 0.0342871,-0.0295389 0.018816,-0.009658 0.0323328,-0.0138025 0.0419307,-0.014511 0.00193,-1.4244e-4 0.00344,-1.603e-4 0.004742,-1.1622e-4 0.001966,6.659e-5 0.004146,3.1398e-4 0.007064,6.8286e-4 0.008841,0.001118 0.0216186,0.004445 0.0358165,0.011613 0.0146854,0.008001 0.02746,0.0172059 0.0387685,0.0311812 0.009521,0.0117667 0.0163601,0.0249145 0.0204645,0.0385229 0.005601,0.0185698 0.004992,0.0342655 0.004053,0.0431256 z m 0.056336,0 c -9.6059e-4,-0.0137426 -0.00426,-0.0365853 -0.01706,-0.0614523 -0.009264,-0.0179969 -0.0219047,-0.0339116 -0.0371134,-0.0468765 -0.0179542,-0.0153053 -0.0362424,-0.0237787 -0.0505374,-0.0284579 -0.001834,-6.0023e-4 -0.003571,-0.001128 -0.005195,-0.001593 -0.0185445,-0.005303 -0.0344947,-0.005472 -0.0444522,-0.005423 -0.003601,1.786e-5 -0.005682,1.8683e-4 -0.008144,2.597e-4 -0.001664,4.927e-5 -0.003038,5.994e-5 -0.005429,7.272e-5 -0.0104829,5.606e-5 -0.0276519,-7.8162e-4 -0.0474262,0.00488 -0.001635,4.6803e-4 -0.00332,9.7724e-4 -0.005051,0.001533 -0.0152325,0.004893 -0.0334888,0.0132806 -0.0511123,0.028039 -0.0144984,0.0121414 -0.0276795,0.027913 -0.0372619,0.0472113 -0.009375,0.0188797 -0.0146404,0.0398488 -0.0149538,0.0615388 -2.7418e-4,0.0219283 0.004578,0.0431629 0.0138328,0.0625484 0.008864,0.018567 0.0215131,0.0349298 0.0367845,0.0483356 0.0150384,0.0132013 0.0324214,0.0233742 0.0511089,0.0302276 0.018569,0.00681 0.0383557,0.0103179 0.0586457,0.0104876 0.0194595,7.325e-5 0.0396956,-0.002711 0.0603689,-0.0104877 0.0185061,-0.006962 0.0356935,-0.0173259 0.050628,-0.0307084 0.0161721,-0.0144915 0.0282185,-0.0311784 0.0366074,-0.0481329 0.0145384,-0.029383 0.0158981,-0.0558376 0.0158696,-0.0604122 z"
         sodipodi:type="arc"
         sodipodi:ry="0.13433424"
         sodipodi:rx="0.13433424"
         sodipodi:cy="0.69817132"
         sodipodi:cx="0.83102834"
         inkscape:path-effect="#path-effect1" />
    </g>
    <g
       id="text16"
       style="font-size:50.6666px;line-height:0.9;font-family:'Lucid Type A BRK';-inkscape-font-specification:'Lucid Type A BRK';text-align:end;letter-spacing:0px;word-spacing:0px;white-space:pre;stroke-width:2.26772;paint-order:stroke fill markers"
       transform="matrix(0.01041667,0,0,0.01041667,-0.76380684,-0.35007961)"
       aria-label="Shree">
      <path
         style="letter-spacing:0.39px;text-anchor:end"
         d="m 152.03657,78.09469 v -1.114665 q 0.152,-0.607999 0.81066,-1.013332 0.65867,-0.405333 1.26667,-0.405333 1.16533,0 1.51999,0.759999 0.35467,0.759999 0.55734,1.671998 0.25333,0.911999 0.76,1.671998 0.55733,0.759999 2.07733,0.759999 0.456,0 0.912,-0.101334 0.50666,-0.151999 0.91199,-0.354666 0.40534,-0.253333 0.65867,-0.607999 0.304,-0.405333 0.304,-0.962665 v -6.181326 q 0,-1.063998 -0.608,-1.570664 -0.608,-0.506666 -1.46933,-0.658666 -0.86133,-0.202666 -1.77333,-0.253333 -0.912,-0.101333 -1.52,-0.354666 -0.76,-0.304 -1.57066,-0.861332 -0.76,-0.557333 -1.41867,-1.317332 -0.608,-0.759999 -1.01333,-1.621331 -0.40533,-0.861332 -0.40533,-1.773331 v -7.397324 q 0,-1.266665 0.65866,-2.330663 0.65867,-1.063999 1.672,-1.823998 1.01333,-0.759999 2.22933,-1.165331 1.26666,-0.456 2.432,-0.456 1.41866,0 2.68533,0.506666 1.26666,0.506666 2.22933,1.418665 0.96266,0.861332 1.51999,2.127997 0.55734,1.215998 0.55734,2.634663 v 1.063999 q -0.20267,0.759999 -0.81067,1.013332 -0.55733,0.202666 -1.16533,0.202666 -1.31733,0 -1.672,-0.709332 -0.35466,-0.709333 -0.55733,-1.570665 -0.20267,-0.911999 -0.65867,-1.621331 -0.456,-0.709332 -1.97599,-0.709332 -0.40534,0 -0.912,0.101333 -0.50667,0.101333 -0.96267,0.354666 -0.456,0.202666 -0.76,0.607999 -0.304,0.405333 -0.304,0.962666 v 6.181325 q 0,0.962665 0.50667,1.469331 0.55733,0.456 1.31733,0.709333 0.76,0.202666 1.57067,0.253333 0.81066,0.05067 1.36799,0.151999 0.912,0.152 1.824,0.759999 0.912,0.557333 1.62133,1.367999 0.70933,0.810665 1.11467,1.77333 0.456,0.962666 0.456,1.925331 v 7.59999 q 0,1.266665 -0.70934,2.279997 -0.65866,1.013332 -1.72266,1.773331 -1.01333,0.709332 -2.22933,1.114665 -1.216,0.405333 -2.33066,0.405333 -1.41867,0 -2.68533,-0.506666 -1.26667,-0.506666 -2.22933,-1.367998 -0.96267,-0.911999 -1.52,-2.127997 -0.55733,-1.215999 -0.55733,-2.68533 z m 17.56589,-27.461297 q 0.20267,0 0.55734,0.152 0.35466,0.101333 0.65866,0.354666 0.35467,0.202667 0.55733,0.456 0.25334,0.253333 0.25334,0.455999 V 65.42804 q 1.368,0.05067 2.63466,0.152 1.31733,0.05067 2.48266,0.405333 1.16534,0.354666 2.17867,1.063998 1.01333,0.709333 1.77333,1.975998 0.35466,0.557332 0.55733,1.266665 0.25333,0.709332 0.25333,1.367998 v 11.754651 q 0,0.759999 -0.75999,1.013332 -0.70934,0.202666 -1.216,0.202666 -0.25334,0 -0.608,-0.05067 -0.35467,-0.05067 -0.70933,-0.202667 -0.304,-0.152 -0.55734,-0.354666 -0.25333,-0.253333 -0.25333,-0.607999 V 72.217364 q 0,-1.063998 -0.70933,-1.519998 -0.65867,-0.506666 -1.62133,-0.658665 -0.912,-0.202667 -1.92533,-0.152 -0.96267,0.05067 -1.52,0.05067 v 13.477316 q 0,0.354666 -0.25334,0.607999 -0.25333,0.202666 -0.60799,0.354666 -0.304,0.152 -0.70934,0.202667 -0.35466,0.05067 -0.55733,0.05067 -0.50667,0 -1.26666,-0.202666 -0.70934,-0.253333 -0.70934,-1.013332 V 52.052058 q 0,-0.304 0.20267,-0.557333 0.25333,-0.253333 0.608,-0.455999 0.35466,-0.202666 0.65866,-0.304 0.35467,-0.101333 0.608,-0.101333 z"
         id="path2" />
      <path
         style="text-anchor:end"
         d="m 185.09103,65.630707 q 0.40533,0 0.81067,0.253333 0.40533,0.253333 0.70933,0.354666 h 0.10133 0.10134 q 0.81066,-0.253333 1.46933,-0.405333 0.65866,-0.202666 1.51999,-0.202666 1.064,0 2.33067,0.202666 1.26666,0.202666 2.33066,0.759999 1.11467,0.506666 1.824,1.367998 0.70933,0.861332 0.70933,2.22933 0,0.962666 -0.50666,1.519998 -0.50667,0.557333 -1.46934,0.557333 -1.01333,0 -1.31733,-0.354666 -0.304,-0.354666 -0.55733,-0.759999 -0.25333,-0.405333 -0.81067,-0.759999 -0.50666,-0.354666 -1.97599,-0.354666 -0.76,0 -1.41867,0.05067 -0.65866,0.05067 -1.11466,0.759999 -0.152,0.253333 -0.456,0.810666 -0.25334,0.506666 -0.25334,0.557332 v 11.197319 q 0,0.354666 -0.25333,0.607999 -0.25333,0.202666 -0.608,0.354666 -0.304,0.152 -0.70933,0.202667 -0.35467,0.05067 -0.55733,0.05067 -0.50667,0 -1.26667,-0.202666 -0.70933,-0.253333 -0.70933,-1.013332 V 67.049371 q 0,-0.303999 0.20267,-0.557332 0.25333,-0.304 0.608,-0.456 0.35466,-0.202666 0.65866,-0.303999 0.35467,-0.101333 0.608,-0.101333 z m 20.11456,-0.05067 q 1.46933,0 2.736,0.557333 1.26666,0.506666 2.17866,1.469331 0.912,0.911999 1.41867,2.178664 0.55733,1.266665 0.55733,2.735996 0,0.253333 -0.0507,0.607999 -0.0507,0.354666 -0.20266,0.709333 -0.152,0.354666 -0.40534,0.607999 -0.20266,0.253333 -0.55733,0.253333 h -8.56265 v 3.495995 q 0,1.367998 1.01333,1.823998 1.01333,0.405333 2.07733,0.405333 1.52,0 2.02666,-0.354667 0.55734,-0.354666 0.81067,-0.759999 0.25333,-0.455999 0.55733,-0.810665 0.304,-0.354666 1.31733,-0.354666 1.976,0 1.976,2.178663 0,1.317332 -0.70933,2.178664 -0.70934,0.861332 -1.77333,1.367998 -1.064,0.506666 -2.33067,0.709333 -1.216,0.202666 -2.27999,0.202666 -1.16534,0 -2.432,-0.455999 -1.216,-0.456 -2.22933,-1.215999 -0.96267,-0.810665 -1.62133,-1.874664 -0.608,-1.114665 -0.608,-2.431997 v -7.194657 q 0,-1.367998 0.65866,-2.482663 0.65867,-1.114665 1.672,-1.874664 1.064,-0.810666 2.28,-1.215999 1.26666,-0.455999 2.48266,-0.455999 z m -0.10133,4.407994 h -0.96267 q -0.55733,0 -0.81066,0.405333 h 3.59733 q -0.25334,-0.405333 -0.912,-0.405333 z m 15.1999,-4.407994 q 1.46933,0 2.73599,0.557333 1.26667,0.506666 2.17867,1.469331 0.912,0.911999 1.41866,2.178664 0.55733,1.266665 0.55733,2.735996 0,0.253333 -0.0507,0.607999 -0.0507,0.354666 -0.20267,0.709333 -0.152,0.354666 -0.40533,0.607999 -0.20267,0.253333 -0.55733,0.253333 h -8.56266 v 3.495995 q 0,1.367998 1.01333,1.823998 1.01333,0.405333 2.07733,0.405333 1.52,0 2.02667,-0.354667 0.55733,-0.354666 0.81066,-0.759999 0.25334,-0.455999 0.55733,-0.810665 0.304,-0.354666 1.31734,-0.354666 1.97599,0 1.97599,2.178663 0,1.317332 -0.70933,2.178664 -0.70933,0.861332 -1.77333,1.367998 -1.064,0.506666 -2.33066,0.709333 -1.216,0.202666 -2.28,0.202666 -1.16533,0 -2.432,-0.455999 -1.216,-0.456 -2.22933,-1.215999 -0.96266,-0.810665 -1.62133,-1.874664 -0.608,-1.114665 -0.608,-2.431997 v -7.194657 q 0,-1.367998 0.65867,-2.482663 0.65866,-1.114665 1.672,-1.874664 1.06399,-0.810666 2.27999,-1.215999 1.26667,-0.455999 2.48267,-0.455999 z m -0.10134,4.407994 h -0.96266 q -0.55733,0 -0.81067,0.405333 h 3.59733 q -0.25333,-0.405333 -0.912,-0.405333 z"
         id="path6" />
    </g>
    <g
       id="text24"
       style="font-size:50.6666px;line-height:0.9;font-family:'Otsutome_font Bold';-inkscape-font-specification:'Otsutome_font Bold, ';text-align:end;letter-spacing:0px;word-spacing:0px;white-space:pre;stroke-width:2.26772;paint-order:stroke fill markers"
       transform="matrix(0.01041667,0,0,0.01041667,-0.29904751,-0.35007961)"
       aria-label="&#10;Collective&#10;Inc.">
      <path
         style="font-family:'Lucid Type A BRK';-inkscape-font-specification:'Lucid Type A BRK'"
         d="m 114.41167,97.00435 q 1.11467,0 2.33067,0.405332 1.216,0.405333 2.22933,1.165332 1.064,0.709333 1.72266,1.722666 0.70934,1.01333 0.70934,2.28 v 7.19465 q 0,0.70933 -0.76,0.96267 -0.70934,0.25333 -1.216,0.25333 -0.25334,0 -0.608,-0.0507 -0.35467,-0.0507 -0.70933,-0.20266 -0.304,-0.152 -0.55734,-0.35467 -0.25333,-0.25333 -0.25333,-0.608 v -6.38399 q 0,-0.50666 -0.304,-0.912 -0.304,-0.40533 -0.76,-0.608 -0.40533,-0.25333 -0.912,-0.35466 -0.50666,-0.152 -0.912,-0.152 -0.40533,0 -0.91199,0.152 -0.50667,0.10133 -0.912,0.35466 -0.40534,0.20267 -0.70934,0.608 -0.25333,0.40534 -0.25333,0.912 v 21.17864 q 0,1.216 0.86133,1.72266 0.912,0.50667 1.92533,0.50667 0.70934,0 1.216,-0.10133 0.55734,-0.10134 0.96267,-0.76 0.20266,-0.25334 0.456,-0.76 0.25333,-0.50667 0.25333,-0.608 v -6.18133 q 0,-0.304 0.25333,-0.55733 0.25334,-0.25333 0.608,-0.456 0.40534,-0.20266 0.76,-0.304 0.35467,-0.10133 0.608,-0.10133 0.456,0 1.16533,0.456 0.70934,0.40533 0.70934,0.96266 v 6.78933 q 0,1.368 -0.65867,2.48266 -0.608,1.064 -1.62133,1.87467 -1.01333,0.76 -2.28,1.21599 -1.216,0.40534 -2.432,0.40534 -1.21599,0 -2.48266,-0.40534 -1.216,-0.45599 -2.22933,-1.21599 -1.01333,-0.76 -1.672,-1.87467 -0.608,-1.11466 -0.608,-2.48266 v -22.5973 q 0,-1.26667 0.65867,-2.28 0.70933,-1.013333 1.72266,-1.722666 1.064,-0.759999 2.28,-1.165332 1.216,-0.405332 2.33066,-0.405332 z m 15.09857,14.94665 q 1.216,0 2.432,0.456 1.26666,0.40533 2.28,1.21599 1.01333,0.81067 1.62133,1.92533 0.65866,1.064 0.65866,2.432 v 7.19466 q 0,1.368 -0.65866,2.48266 -0.608,1.064 -1.62133,1.87467 -1.01334,0.76 -2.28,1.21599 -1.216,0.40534 -2.432,0.40534 -1.216,0 -2.48266,-0.40534 -1.216,-0.45599 -2.22933,-1.21599 -1.01333,-0.81067 -1.672,-1.87467 -0.608,-1.11466 -0.608,-2.48266 v -7.19466 q 0,-1.368 0.608,-2.432 0.65867,-1.11466 1.672,-1.92533 1.01333,-0.81066 2.22933,-1.21599 1.26666,-0.456 2.48266,-0.456 z m 0,4.40799 q -1.01333,0 -1.92533,0.50667 -0.86133,0.456 -0.86133,1.72266 v 5.97866 q 0,1.216 0.86133,1.72266 0.912,0.50667 1.92533,0.50667 1.01333,0 1.87467,-0.50667 0.91199,-0.50666 0.91199,-1.72266 v -5.97866 q 0,-1.26666 -0.91199,-1.72266 -0.86134,-0.50667 -1.87467,-0.50667 z m 10.18391,-18.999974 q 0.456,0 1.16533,0.455999 0.70933,0.405333 0.70933,0.962666 v 31.058629 q 0,0.70933 -0.76,0.96266 -0.70933,0.20267 -1.21599,0.20267 -0.50667,0 -1.26667,-0.20267 -0.70933,-0.25333 -0.70933,-0.96266 V 98.777681 q 0,-0.658666 0.76,-1.013332 0.81066,-0.405333 1.31733,-0.405333 z m 5.06658,0 q 0.456,0 1.16533,0.455999 0.70934,0.405333 0.70934,0.962666 v 31.058629 q 0,0.70933 -0.76,0.96266 -0.70934,0.20267 -1.216,0.20267 -0.50667,0 -1.26667,-0.20267 -0.70933,-0.25333 -0.70933,-0.96266 V 98.777681 q 0,-0.658666 0.76,-1.013332 0.81067,-0.405333 1.31733,-0.405333 z M 154.84331,111.951 q 1.46933,0 2.73599,0.55733 1.26667,0.50666 2.17867,1.46933 0.912,0.912 1.41866,2.17866 0.55733,1.26667 0.55733,2.736 0,0.25333 -0.0507,0.608 -0.0507,0.35467 -0.20267,0.70933 -0.152,0.35467 -0.40533,0.608 -0.20267,0.25333 -0.55733,0.25333 h -8.56266 v 3.496 q 0,1.368 1.01333,1.824 1.01333,0.40533 2.07733,0.40533 1.52,0 2.02667,-0.35467 0.55733,-0.35466 0.81066,-0.76 0.25334,-0.45599 0.55734,-0.81066 0.304,-0.35467 1.31733,-0.35467 1.97599,0 1.97599,2.17867 0,1.31733 -0.70933,2.17866 -0.70933,0.86133 -1.77333,1.368 -1.064,0.50666 -2.33066,0.70933 -1.216,0.20267 -2.28,0.20267 -1.16533,0 -2.432,-0.456 -1.21599,-0.456 -2.22933,-1.216 -0.96266,-0.81067 -1.62133,-1.87466 -0.608,-1.11467 -0.608,-2.432 v -7.19466 q 0,-1.368 0.65867,-2.48266 0.65866,-1.11467 1.672,-1.87467 1.064,-0.81066 2.27999,-1.21599 1.26667,-0.456 2.48267,-0.456 z m -0.10134,4.40799 h -0.96266 q -0.55733,0 -0.81067,0.40533 h 3.59733 q -0.25333,-0.40533 -0.912,-0.40533 z m 14.99724,-4.40799 q 1.064,0 2.28,0.20266 1.26666,0.20267 2.33066,0.76 1.064,0.50667 1.77333,1.368 0.70933,0.86133 0.70933,2.22933 0,0.96267 -0.50666,1.52 -0.50667,0.55733 -1.46933,0.55733 -1.01334,0 -1.31734,-0.35467 -0.304,-0.35466 -0.55733,-0.75999 -0.25333,-0.40534 -0.81066,-0.76 -0.50667,-0.35467 -2.02667,-0.35467 -1.064,0 -2.07733,0.456 -1.01333,0.40533 -1.01333,1.77333 v 5.97866 q 0,0.65867 0.304,1.11466 0.304,0.40534 0.76,0.65867 0.456,0.25333 1.01333,0.35467 0.55733,0.10133 1.11466,0.10133 1.46934,0 1.976,-0.35467 0.55733,-0.35466 0.76,-0.76 0.25333,-0.45599 0.55733,-0.81066 0.304,-0.35467 1.31734,-0.35467 1.97599,0 1.97599,2.17867 0,1.31733 -0.70933,2.17866 -0.65867,0.81067 -1.72266,1.368 -1.01334,0.50666 -2.22933,0.70933 -1.16534,0.20267 -2.22933,0.20267 -1.11467,0 -2.38134,-0.40534 -1.21599,-0.40533 -2.27999,-1.11466 -1.064,-0.76 -1.77333,-1.77333 -0.65867,-1.01333 -0.65867,-2.28 v -7.59999 q 0,-1.31733 0.608,-2.432 0.65867,-1.11466 1.62133,-1.87466 1.01333,-0.81066 2.22933,-1.26666 1.26667,-0.456 2.432,-0.456 z m 13.12257,4.15466 h -3.69866 q -0.65867,0 -0.96267,-0.76 -0.25333,-0.76 -0.25333,-1.216 0,-0.70933 0.304,-1.16533 0.304,-0.456 0.76,-0.70933 0.50666,-0.25334 1.064,-0.35467 0.608,-0.10133 1.21599,-0.10133 h 1.57067 v -5.776 q 0,-0.75999 0.76,-1.06399 0.81066,-0.35467 1.31733,-0.35467 0.50667,0 1.26666,0.35467 0.81067,0.304 0.81067,1.06399 v 5.776 h 1.52 q 1.26666,0 2.33066,0.456 1.064,0.456 1.064,1.87466 0,0.456 -0.304,1.216 -0.25333,0.76 -0.912,0.76 h -3.69866 v 13.67998 q 0,0.35467 -0.25333,0.608 -0.20267,0.20266 -0.55734,0.35466 -0.35466,0.152 -0.70933,0.20267 -0.35466,0.0507 -0.55733,0.0507 -0.25333,0 -0.608,-0.0507 -0.304,-0.0507 -0.65867,-0.20267 -0.35466,-0.152 -0.60799,-0.35466 -0.20267,-0.25333 -0.20267,-0.608 z m 12.26123,-3.90133 q 0.456,0 1.16534,0.456 0.70933,0.40533 0.70933,0.912 v 16.26398 q 0,0.70933 -0.76,0.96266 -0.70933,0.20267 -1.216,0.20267 -0.50667,0 -1.26666,-0.20267 -0.70934,-0.25333 -0.70934,-0.96266 v -16.26398 q 0,-0.304 0.20267,-0.55734 0.25333,-0.25333 0.55733,-0.40533 0.35467,-0.20266 0.70933,-0.304 0.35467,-0.10133 0.608,-0.10133 z m -2.12799,-5.31999 q 0,-2.02667 2.02666,-2.02667 2.02666,0 2.02666,2.02667 0,0.912 -0.55733,1.46933 -0.50666,0.50666 -1.46933,0.50666 -0.96266,0 -1.52,-0.50666 -0.50666,-0.55733 -0.50666,-1.46933 z m 5.06658,7.29599 q 0,-0.912 0.55733,-1.52 0.55733,-0.65867 1.57067,-0.65867 0.60799,0 1.16533,0.456 0.55733,0.40534 0.76,0.96267 l 2.98933,8.76532 2.98933,-8.76532 q 0.25333,-0.65867 0.86133,-1.01333 0.608,-0.40534 1.26666,-0.40534 0.912,0 1.41867,0.70934 0.50666,0.65866 0.50666,1.46933 0,0.152 -0.0507,0.40533 0,0.20267 0,0.25333 l -5.016,14.94665 q -0.25333,0.76 -0.76,1.01333 -0.50666,0.20267 -1.21599,0.20267 -0.70934,0 -1.216,-0.20267 -0.50667,-0.25333 -0.76,-1.01333 l -5.01599,-14.94665 q 0,-0.0507 -0.0507,-0.25333 0,-0.25333 0,-0.40533 z m 22.24256,-2.22933 q 1.46933,0 2.736,0.55733 1.26666,0.50666 2.17866,1.46933 0.912,0.912 1.41867,2.17866 0.55733,1.26667 0.55733,2.736 0,0.25333 -0.0507,0.608 -0.0507,0.35467 -0.20266,0.70933 -0.152,0.35467 -0.40534,0.608 -0.20266,0.25333 -0.55733,0.25333 h -8.56266 v 3.496 q 0,1.368 1.01334,1.824 1.01333,0.40533 2.07733,0.40533 1.52,0 2.02666,-0.35467 0.55733,-0.35466 0.81067,-0.76 0.25333,-0.45599 0.55733,-0.81066 0.304,-0.35467 1.31733,-0.35467 1.976,0 1.976,2.17867 0,1.31733 -0.70933,2.17866 -0.70934,0.86133 -1.77334,1.368 -1.06399,0.50666 -2.33066,0.70933 -1.216,0.20267 -2.28,0.20267 -1.16533,0 -2.43199,-0.456 -1.216,-0.456 -2.22933,-1.216 -0.96267,-0.81067 -1.62133,-1.87466 -0.608,-1.11467 -0.608,-2.432 v -7.19466 q 0,-1.368 0.65866,-2.48266 0.65867,-1.11467 1.672,-1.87467 1.064,-0.81066 2.28,-1.21599 1.26666,-0.456 2.48266,-0.456 z m -0.10133,4.40799 h -0.96267 q -0.55733,0 -0.81066,0.40533 h 3.59733 q -0.25334,-0.40533 -0.912,-0.40533 z"
         id="path7" />
      <path
         style="font-family:'Lucid Type A BRK';-inkscape-font-specification:'Lucid Type A BRK'"
         d="m 177.94712,175.49793 q 0,-0.912 0.50666,-1.368 0.50667,-0.50666 1.216,-0.70933 0.76,-0.20267 1.57067,-0.20267 0.86133,-0.0507 1.51999,-0.0507 V 147.4793 h -3.59732 q -0.65867,0 -0.96267,-0.76 -0.25333,-0.76 -0.25333,-1.216 0,-0.86133 0.50666,-1.46933 0.55734,-0.608 1.46933,-0.608 h 10.23466 q 0.86133,0 1.31733,0.70933 0.456,0.65867 0.456,1.368 0,0.456 -0.304,1.216 -0.25333,0.76 -0.912,0.76 h -3.59733 v 25.68797 q 0.65867,0 1.46933,0.0507 0.86133,0 1.57067,0.20267 0.76,0.20267 1.26666,0.70933 0.50667,0.456 0.50667,1.368 0,0.456 -0.25333,1.16533 -0.25334,0.70933 -0.96267,0.70933 h -11.55198 q -0.70934,0 -0.96267,-0.70933 -0.25333,-0.70933 -0.25333,-1.16533 z m 17.17589,-17.12531 q 0.40534,0 0.81067,0.25333 0.40533,0.25334 0.70933,0.35467 h 0.10134 q 0.81066,0 1.62133,-0.304 0.81066,-0.304 1.67199,-0.304 1.216,0 2.432,0.456 1.26667,0.40533 2.28,1.216 1.01333,0.81066 1.62133,1.92533 0.65867,1.064 0.65867,2.43199 v 11.75466 q 0,0.75999 -0.76,1.01333 -0.70934,0.20266 -1.216,0.20266 -0.25334,0 -0.608,-0.0507 -0.35467,-0.0507 -0.70933,-0.20267 -0.304,-0.152 -0.55734,-0.35467 -0.25333,-0.25333 -0.25333,-0.60799 v -11.19732 q 0,-0.0507 -0.25333,-0.55734 -0.25334,-0.55733 -0.456,-0.81066 -0.40533,-0.65867 -0.96267,-0.70933 -0.50666,-0.10134 -1.216,-0.10134 -0.70933,0 -1.26666,0.10134 -0.50667,0.0507 -0.912,0.70933 -0.152,0.25333 -0.456,0.81066 -0.25333,0.50667 -0.25333,0.55734 v 11.19732 q 0,0.35466 -0.25333,0.60799 -0.25334,0.20267 -0.608,0.35467 -0.304,0.152 -0.70934,0.20267 -0.35466,0.0507 -0.55733,0.0507 -0.50666,0 -1.26666,-0.20266 -0.70934,-0.25334 -0.70934,-1.01333 v -16.36532 q 0,-0.304 0.20267,-0.55733 0.25333,-0.304 0.608,-0.456 0.35467,-0.20266 0.65867,-0.304 0.35466,-0.10133 0.60799,-0.10133 z m 19.9119,-0.0507 q 1.064,0 2.28,0.20267 1.26666,0.20267 2.33066,0.76 1.064,0.50666 1.77333,1.368 0.70933,0.86133 0.70933,2.22933 0,0.96266 -0.50666,1.51999 -0.50667,0.55734 -1.46934,0.55734 -1.01333,0 -1.31733,-0.35467 -0.304,-0.35467 -0.55733,-0.76 -0.25333,-0.40533 -0.81066,-0.76 -0.50667,-0.35466 -2.02667,-0.35466 -1.064,0 -2.07733,0.456 -1.01333,0.40533 -1.01333,1.77333 v 5.97866 q 0,0.65866 0.304,1.11466 0.304,0.40533 0.76,0.65867 0.456,0.25333 1.01333,0.35466 0.55733,0.10134 1.11466,0.10134 1.46934,0 1.976,-0.35467 0.55733,-0.35467 0.76,-0.76 0.25333,-0.456 0.55733,-0.81066 0.304,-0.35467 1.31733,-0.35467 1.976,0 1.976,2.17866 0,1.31733 -0.70933,2.17867 -0.65867,0.81066 -1.72266,1.368 -1.01334,0.50666 -2.22933,0.70933 -1.16534,0.20266 -2.22934,0.20266 -1.11466,0 -2.38133,-0.40533 -1.21599,-0.40533 -2.27999,-1.11466 -1.064,-0.76 -1.77333,-1.77334 -0.65867,-1.01333 -0.65867,-2.27999 v -7.59999 q 0,-1.31733 0.608,-2.432 0.65867,-1.11466 1.62133,-1.87466 1.01333,-0.81067 2.22933,-1.26667 1.26667,-0.456 2.432,-0.456 z m 8.20791,17.17598 q 0,-0.86133 0.55733,-1.46933 0.55733,-0.608 1.52,-0.608 0.86133,0 1.368,0.65867 0.50666,0.60799 0.50666,1.41866 0,1.87466 -1.976,1.87466 -1.97599,0 -1.97599,-1.87466 z"
         id="path8" />
    </g>
    <g
       id="g108"
       transform="rotate(51.941539,-0.148441,2.0399547)"
       style="display:inline;stroke:#000000;stroke-width:0.02;stroke-dasharray:none">
      <g
         id="path103"
         transform="matrix(1.3676399,0,0,1.3676399,-1.1880355,-0.24116115)">
        <path
           id="path1"
           style="color:#000000;fill:#000000;stroke:none;-inkscape-stroke:none"
           d="m 0.70703064,0.57421787 c -0.005991,0.007481 -0.0110731,0.0162202 -0.0156231,0.0253842 -0.008901,0.0179239 -0.0133853,0.0360653 -0.0136826,0.0566411 -2.599e-4,0.0207905 0.002938,0.0421422 0.0117273,0.0605518 0.00842,0.0176364 0.020603,0.0321309 0.0351593,0.0449089 0.0143359,0.0125846 0.0309562,0.0227563 0.0488266,0.0293103 0.009877,0.003623 0.0207195,0.006141 0.031257,0.007808 l 0.005855,0.001958 -8.29e-6,0.00585 c 0.002162,0.0311564 0.004201,0.0619875 0.005868,0.0918046 l -7.52e-6,0.00194 c -0.002193,0.0239239 -0.003562,0.0482311 -0.005856,0.0722719 l -7.8e-7,0.00391 -0.005855,0.001953 c -0.0109519,0.001414 -0.0229012,0.004282 -0.0332027,0.007804 -0.0180074,0.006157 -0.0342136,0.0150818 -0.0488267,0.0273498 -0.01484,0.012459 -0.0283144,0.027483 -0.0371183,0.044924 -0.009192,0.01821 -0.013468,0.037807 -0.0136667,0.058599 -1.566e-4,0.020575 0.005166,0.04046 0.0136699,0.058577 0.008694,0.018525 0.0196749,0.035046 0.0331959,0.046886 0.0164486,0.014403 0.0344095,0.022348 0.0488408,0.027338 0.001635,5.6e-4 0.00233,0.00147 0.003905,0.00196 0.0154461,0.00479 0.0306026,0.00371 0.0410183,0.00391 l 0.00586,-3.5e-6 -8.29e-6,0.00585 c 5.83e-4,0.00291 0.001799,0.00384 0.003909,0.00391 0.00211,8e-5 0.005082,9.165e-4 0.005867,-0.00194 l -3.41e-6,-0.00586 0.00586,-3.4e-6 c 0.009742,1.6e-4 0.0233136,2.234e-4 0.0390498,-0.00391 0.001533,-4e-4 0.004089,-0.00141 0.005867,-0.00194 0.0136598,-0.00414 0.031411,-0.011203 0.0488309,-0.0254 0.0147506,-0.012023 0.0259432,-0.027964 0.0351482,-0.044917 0.0127201,-0.023427 0.016369,-0.045479 0.017577,-0.058599 8.36e-5,-0.00295 -4.364e-4,-0.030309 -0.0136607,-0.058589 -0.007642,-0.016341 -0.0180754,-0.032703 -0.0332051,-0.046874 -0.013971,-0.013086 -0.0293629,-0.0222607 -0.0468748,-0.0292937 -0.009585,-0.00385 -0.0198836,-0.006024 -0.0292985,-0.007824 l -0.005864,-0.001946 -3.42e-6,-0.00586 c -0.001535,-0.0366807 -0.00305,-0.0747784 -0.003897,-0.1093807 0.001276,-0.0191267 0.002571,-0.0374304 0.003904,-0.0566267 l 5.75e-6,-0.005871 0.005855,-0.001953 c 0.0100875,-0.001571 0.0209083,-0.003922 0.0312418,-0.007809 0.0176645,-0.006645 0.0326177,-0.0165207 0.0468733,-0.0292948 0.0154384,-0.013834 0.0271681,-0.0287502 0.0351691,-0.0449198 0.013415,-0.0271119 0.0155486,-0.0524185 0.0156202,-0.0566544 l -4.2e-6,-0.001949 c -9.187e-4,-0.0131426 -0.003422,-0.0348929 -0.0156217,-0.0585942 -0.008828,-0.0171495 -0.020667,-0.0325741 -0.0351502,-0.0449206 -0.0171026,-0.0145794 -0.0352735,-0.0228967 -0.0488408,-0.0273376 -0.00174,-5.69e-4 -0.004311,-0.001516 -0.005855,-0.001958 -0.0149572,-0.004277 -0.0274751,-0.003807 -0.0371081,-0.003906 l -0.00586,3.41e-6 -3.42e-6,-0.00586 c -3.85e-4,-0.00122 -0.001688,-0.002967 -0.001948,-0.003906 l -4.2e-6,-0.001949 4.97e-6,-0.001961 -0.001953,-0.001945 -0.001944,-0.001957 c -0.001338,-5.061e-5 -0.00317,-6.0991e-4 -0.00391,-7.8e-7 l -1.172e-5,-9.17e-6 c -7.4e-4,6.09e-4 -0.001868,0.001793 -0.00195,0.003914 l 4.19e-6,0.001949 4.2e-6,0.001949 c -2.8e-4,9.8e-4 -0.001562,0.002642 -0.001962,0.003905 l -0.001946,0.005864 -0.00391,-7.8e-7 c -0.0101336,1.2e-5 -0.0245501,-2.5662e-4 -0.0390615,0.003897 -0.001556,4.45e-4 -0.002256,0.001427 -0.003915,0.00196 -0.0145346,0.004669 -0.0320534,0.0132993 -0.0488176,0.0273381 -0.006893,0.005773 -0.0135442,0.0120658 -0.0195342,0.0195448 z m 0.0371047,-0.001953 c 0.0113057,-0.0143576 0.0249602,-0.024427 0.0371202,-0.031244 0.0105878,-0.005435 0.0194973,-0.009243 0.0273323,-0.0117202 l 0.0136766,-0.005861 -0.003899,0.0136675 c -0.00739,0.0225625 -0.0172537,0.0548632 -0.0195327,0.0781333 -0.004358,0.0445129 0.006042,0.1012571 0.009768,0.15429494 l -9.07e-6,0.009761 -0.009765,-0.001958 c -0.005609,-0.001748 -0.010441,-0.005213 -0.015616,-0.007805 -0.0144713,-0.00725 -0.0272858,-0.0155513 -0.0371218,-0.0273445 -0.009989,-0.0119761 -0.0166616,-0.0271016 -0.0214826,-0.0410214 -0.005012,-0.0144693 -0.007535,-0.0278874 -0.007816,-0.0429608 -2.69e-4,-0.015384 0.001137,-0.0322303 0.005865,-0.0468729 0.004851,-0.0150238 0.0121918,-0.0272701 0.0214808,-0.0390676 z m 0.0957027,-0.0468748 0.0136792,0.003908 c 0.007146,0.002005 0.0148165,0.003455 0.0234365,0.007807 0.0151867,0.008274 0.028998,0.0183568 0.0410146,0.0332073 0.0101192,0.0125059 0.0171056,0.0265087 0.0214826,0.0410214 0.005972,0.0198028 0.006866,0.0374492 0.005866,0.0468752 -1.04e-4,0.003107 0.001495,0.0202795 -0.005864,0.0429626 -0.004268,0.0131564 -0.0124635,0.0282467 -0.0234376,0.0410119 -0.0101479,0.0118043 -0.0227265,0.0203349 -0.0371077,0.0273429 -0.005364,0.002614 -0.0102637,0.006156 -0.0156217,0.007815 l -0.009766,0.001952 -2.64e-6,-0.00977 C 0.8572543,0.71652967 0.8676351,0.65970392 0.8632803,0.61523487 0.8610053,0.59200737 0.8511418,0.55966757 0.8437548,0.53710957 Z M 0.73828924,1.0390687 c 0.001171,-0.00148 0.002593,-0.00242 0.003899,-0.00392 0.0100966,-0.011576 0.022478,-0.022362 0.0371035,-0.029292 0.005523,-0.00262 0.0115738,-0.0042 0.0175868,-0.005861 l 0.0117148,-0.001956 -0.001947,0.009774 c -0.005463,0.050995 -0.0167195,0.1056242 -0.0136765,0.1484282 0.001841,0.025901 0.0127039,0.061455 0.0195289,0.083985 l 0.003903,0.013693 -0.01367,-0.00392 c -0.008458,-0.00261 -0.0175166,-0.00727 -0.0292994,-0.013663 -0.0120034,-0.00709 -0.0241634,-0.016656 -0.0351508,-0.031261 -0.009025,-0.011997 -0.0169728,-0.025883 -0.0214918,-0.04101 -0.004404,-0.014745 -0.006461,-0.031493 -0.005854,-0.046866 6.13e-4,-0.01506 0.00444,-0.028624 0.009772,-0.042983 0.004488,-0.012087 0.009195,-0.024543 0.0175815,-0.035148 z m 0.11327542,-0.0410139 0.0117183,0.003903 c 0.004638,0.00165 0.009063,0.00348 0.0136717,0.00585 0.0142197,0.00733 0.0272223,0.019218 0.0371093,0.031246 0.0106889,0.013003 0.0175015,0.025824 0.0214785,0.039072 0.006856,0.02284 0.003881,0.039859 0.003917,0.042969 l -7.52e-6,0.00194 c 7.93e-4,0.00945 5.4973e-4,0.02527 -0.005857,0.044933 -0.004696,0.014413 -0.0110968,0.02873 -0.0214883,0.041008 -0.0123378,0.014577 -0.0275963,0.023317 -0.042968,0.031257 -0.009585,0.00458 -0.0176982,0.00796 -0.0253872,0.00977 l -0.0136808,0.00391 0.003908,-0.013679 c 0.008032,-0.022194 0.0221993,-0.058422 0.0253913,-0.083975 0.005293,-0.042365 -0.003069,-0.095504 -0.00585,-0.1464854 z" />
      </g>
    </g>
    <g
       id="g115"
       transform="matrix(0.18870476,0,0,0.18870476,0.05899038,0.93923869)"
       style="display:inline">
      <path
         d="M 2.9775536,2.1215919 C 3.093531,2.0823946 3.187477,1.9522376 3.1874936,1.8307317 l 8.2e-6,-0.059896 H 2.2708349 1.3541679 v 0.056901 c 0,0.1273093 0.082694,0.2456938 0.2048613,0.2932789 l 0.060764,0.023668 0.6510419,-0.00214 c 0.5968764,-0.00196 0.6556741,-0.0037 0.7067187,-0.020955 z M 2.0416682,1.6704543 c 0.084368,-0.04003 0.1574948,-0.1041767 0.1951081,-0.1711467 0.015868,-0.028252 0.031202,-0.051372 0.034077,-0.051378 0.00287,-5.9e-6 0.016734,0.021682 0.0308,0.048196 0.037158,0.070044 0.1062201,0.1340136 0.1858836,0.1721775 0.1297045,0.062137 0.2995791,0.051024 0.4298656,-0.028121 0.096793,-0.058799 0.2146168,-0.1998296 0.1886449,-0.2258015 -0.021343,-0.021343 -0.1296274,-0.015162 -0.2050032,0.011702 -0.062462,0.022262 -0.091586,0.026064 -0.203125,0.026516 -0.071615,2.906e-4 -0.1395834,-0.00348 -0.1510418,-0.00839 -0.0317,-0.013564 -0.5153144,-0.00996 -0.6050156,0.00452 -0.096833,0.015621 -0.2061396,0.00761 -0.3009914,-0.022046 -0.072486,-0.022667 -0.1610027,-0.033549 -0.1955558,-0.024042 -0.030157,0.0083 -0.020867,0.041145 0.029631,0.1047691 0.078828,0.099318 0.1327519,0.1396627 0.2438063,0.1824093 0.035454,0.013647 0.072256,0.017399 0.1510417,0.015402 0.091699,-0.00232 0.1122706,-0.00649 0.1718746,-0.034767 z M 1.8854181,1.386307 c 0,-0.00524 -0.022266,-0.025987 -0.049479,-0.046101 C 1.7347029,1.2653804 1.6739849,1.1886505 1.6326721,1.0833356 1.6034807,1.0089211 1.5947395,0.96163941 1.5941448,0.87494125 l -3.935e-4,-0.0573526 -0.049479,-0.0224975 c -0.075433,-0.034298 -0.1540418,-0.0576141 -0.181256,-0.0537617 -0.023791,0.003368 -0.024451,0.006225 -0.023694,0.10242274 0.00168,0.21383731 0.1080315,0.41762471 0.2573729,0.49318451 0.082087,0.041532 0.2887233,0.076866 0.2887229,0.04937 z M 2.8784556,1.364297 C 2.9589547,1.3392657 3.0070738,1.3044305 3.0692025,1.2262079 3.151159,1.1230213 3.1896258,1.0149424 3.2036031,0.84858666 c 0.00948,-0.11283826 0.00172,-0.11960587 -0.1013282,-0.0883074 -0.041399,0.0125744 -0.09585,0.032536 -0.1210022,0.0443592 -0.040713,0.0191376 -0.045115,0.0245805 -0.040111,0.0496011 0.0084,0.0419997 -0.011248,0.16410534 -0.036863,0.22909614 -0.043821,0.1111827 -0.122296,0.2092979 -0.218955,0.2737538 -0.021239,0.014163 -0.035301,0.029099 -0.03125,0.033191 0.011606,0.011723 0.1573961,-0.00516 0.2243619,-0.025983 z M 2.117189,1.368926 C 2.120531,1.3655839 2.1050661,1.3446503 2.0828225,1.3224067 2.0071024,1.2466866 1.9698934,1.1433514 1.9671936,1.0012873 L 1.9656098,0.91794439 1.9224,0.88691344 C 1.8592511,0.84156333 1.7213114,0.78125216 1.6807387,0.78125216 c -0.020423,0 -0.018676,0.15762515 0.00255,0.22988024 0.058937,0.2006528 0.198666,0.3208275 0.4217496,0.3627286 0.00334,6.281e-4 0.00881,-0.00159 0.012153,-0.00493 z M 2.552085,1.341102 C 2.6695795,1.296224 2.745844,1.2321201 2.810885,1.1235671 2.844006,1.0682881 2.875002,0.93508324 2.875002,0.84802155 v -0.0757316 l -0.028646,0.00853 c -0.079737,0.0237438 -0.1555038,0.0586275 -0.2121735,0.0976865 l -0.062925,0.0433708 -0.00204,0.10937495 c -0.00183,0.098131 -0.00534,0.1163982 -0.034146,0.177692 -0.017661,0.037574 -0.051527,0.088728 -0.075259,0.1136747 -0.023731,0.024947 -0.043148,0.047151 -0.043148,0.049343 0,0.00843 0.080711,-0.00996 0.1354167,-0.03086 z M 2.3395845,1.334677 C 2.4021635,1.288606 2.4337435,1.250413 2.4655814,1.182294 2.4924924,1.124718 2.4947294,1.110357 2.4939784,1.0000022 2.493272,0.89616011 2.4892238,0.86911521 2.463575,0.79687716 2.4189854,0.67129442 2.3129279,0.49458228 2.2746511,0.48209352 2.2551732,0.47573842 2.1690584,0.59257627 2.1194168,0.69271047 2.0559924,0.82064665 2.0383986,0.89664449 2.0435812,1.0202872 c 0.00633,0.1510994 0.054816,0.2439514 0.1641889,0.3144487 0.058102,0.03745 0.080879,0.03744 0.1318144,-6.25e-5 z M 1.9994041,0.79948133 c 0.015897,-0.0536556 0.072211,-0.17410026 0.1092253,-0.23361268 l 0.02706,-0.0435084 -0.075657,-0.0738814 C 1.9902958,0.38037787 1.8316118,0.26223397 1.789349,0.24694803 1.767229,0.23894703 1.743567,0.27006943 1.727631,0.32812703 1.700525,0.42687203 1.681138,0.54232908 1.678569,0.62029442 l -0.00276,0.083834 0.060534,0.019001 c 0.06357,0.019954 0.181358,0.076361 0.2167844,0.10381514 0.029643,0.022972 0.031695,0.0217541 0.046278,-0.0274632 z m 0.648882,-0.007133 c 0.04735,-0.0225427 0.1153875,-0.0512393 0.1511948,-0.06377 l 0.065104,-0.0227832 -6.25e-5,-0.0534175 c -5.21e-5,-0.0476814 -0.00609,-0.0959224 -0.025088,-0.20042059 -0.011257,-0.0619264 -0.049943,-0.17601516 -0.0657,-0.19375631 -0.014708,-0.0165603 -0.01819,-0.0166347 -0.048437,-0.001034 -0.077918,0.0401875 -0.3190457,0.24118518 -0.3190457,0.26594946 0,0.005239 0.011155,0.0244477 0.024789,0.0426852 0.026345,0.0352406 0.088976,0.16343193 0.1116263,0.22847174 0.00748,0.0214844 0.014936,0.0390625 0.016566,0.0390625 0.00163,0 0.041703,-0.0184441 0.089053,-0.0409873 z M 2.2175559,0.42708538 c 0.0218,-0.0229167 0.045591,-0.0416667 0.05287,-0.0416667 0.00728,0 0.030372,0.01875 0.05132,0.0416667 0.020948,0.0229167 0.041331,0.0416667 0.045295,0.0416667 0.012967,0 0.090766,-0.0881679 0.091034,-0.10316566 C 2.4584339,0.34537931 2.391111,0.2268823 2.3347038,0.14843946 2.2847099,0.07891527 2.2618381,0.06918527 2.2367607,0.10677278 c -0.0086,0.0128906 -0.027478,0.0370395 -0.041951,0.0536642 -0.014473,0.0166247 -0.032577,0.0424059 -0.040232,0.0572917 -0.00766,0.0148857 -0.016383,0.0294088 -0.019394,0.0322733 -0.00301,0.002865 -0.018253,0.0302491 -0.033869,0.0608544 l -0.028394,0.0556462 0.044269,0.0506557 c 0.024348,0.0278606 0.047973,0.0508668 0.052499,0.0511247 0.00453,2.5833e-4 0.026066,-0.018281 0.047866,-0.0411976 z"
         style="display:inline;fill:#000000;stroke-width:0.0104167"
         id="path1-05" />
    </g>
  </g>
</svg>
