<?xml version="1.0" encoding="UTF-8" standalone="no"?>
<!-- Created with Inkscape (http://www.inkscape.org/) -->

<svg
   width="1.1429565in"
   height="1.7493604in"
   viewBox="0 0 1.1429565 1.7493604"
   id="SVGRoot"
   version="1.1"
   inkscape:version="1.3 (0e150ed, 2023-07-21)"
   sodipodi:docname="logo-inverted.svg"
   inkscape:export-filename="business_card_template_v7-alt_simplified-d.png"
   inkscape:export-xdpi="192"
   inkscape:export-ydpi="192"
   xmlns:inkscape="http://www.inkscape.org/namespaces/inkscape"
   xmlns:sodipodi="http://sodipodi.sourceforge.net/DTD/sodipodi-0.dtd"
   xmlns="http://www.w3.org/2000/svg"
   xmlns:svg="http://www.w3.org/2000/svg">
  <sodipodi:namedview
     inkscape:document-units="in"
     inkscape:zoom="2.828427"
     inkscape:cx="130.10765"
     inkscape:cy="90.686449"
     id="namedview1"
     pagecolor="#ffffff"
     bordercolor="#000000"
     borderopacity="0.25"
     inkscape:showpageshadow="2"
     inkscape:pageopacity="0.0"
     inkscape:pagecheckerboard="0"
     inkscape:deskcolor="#d1d1d1"
     inkscape:window-width="1920"
     inkscape:window-height="1019"
     inkscape:window-x="2560"
     inkscape:window-y="0"
     inkscape:window-maximized="1"
     inkscape:current-layer="layer4"
     inkscape:lockguides="true"
     showguides="true"
     showgrid="false">
    <sodipodi:guide
       position="0,2"
       orientation="0,336"
       id="guide1"
       inkscape:locked="true" />
    <sodipodi:guide
       position="3.5,2"
       orientation="192,0"
       id="guide2"
       inkscape:locked="true" />
    <sodipodi:guide
       position="3.5,0"
       orientation="0,-336"
       id="guide3"
       inkscape:locked="true" />
    <sodipodi:guide
       position="0,0"
       orientation="-192,0"
       id="guide4"
       inkscape:locked="true" />
    <sodipodi:guide
       position="-0.125,2.125"
       orientation="216,0"
       id="guide5"
       inkscape:locked="true" />
    <sodipodi:guide
       position="-0.125,-0.125"
       orientation="0,360"
       id="guide6"
       inkscape:locked="true" />
    <sodipodi:guide
       position="3.625,-0.125"
       orientation="-216,0"
       id="guide7"
       inkscape:locked="true" />
    <sodipodi:guide
       position="3.625,2.125"
       orientation="0,-360"
       id="guide8"
       inkscape:locked="true" />
    <sodipodi:guide
       position="0.080000043,1.92"
       orientation="176.64001,0"
       id="guide9"
       inkscape:locked="true" />
    <sodipodi:guide
       position="0.080000043,0.079999924"
       orientation="0,320.64"
       id="guide10"
       inkscape:locked="true" />
    <sodipodi:guide
       position="3.4200001,0.079999924"
       orientation="-176.64001,0"
       id="guide11"
       inkscape:locked="true" />
    <sodipodi:guide
       position="3.4200001,1.92"
       orientation="0,-320.64"
       id="guide12"
       inkscape:locked="true" />
    <sodipodi:guide
       position="1.125,1.375"
       orientation="72,0"
       inkscape:locked="true"
       id="guide58" />
    <sodipodi:guide
       position="1.125,0.625"
       orientation="0,120"
       inkscape:locked="true"
       id="guide59" />
    <sodipodi:guide
       position="2.375,0.625"
       orientation="-72,0"
       inkscape:locked="true"
       id="guide60" />
    <sodipodi:guide
       position="2.375,1.375"
       orientation="0,-120"
       inkscape:locked="true"
       id="guide61" />
  </sodipodi:namedview>
  <defs
     id="defs1">
    <inkscape:path-effect
       effect="powerstroke"
       id="path-effect115"
       is_visible="true"
       lpeversion="1.3"
       scale_width="1"
       interpolator_type="CentripetalCatmullRom"
       interpolator_beta="0.2"
       start_linecap_type="zerowidth"
       end_linecap_type="zerowidth"
       offset_points="2.001006,0.026899537 | 2.9770505,0.0092368096 | 2.7726629,0.013956292 | 3.0343952,0.0096950026 | 3.2266173,0.013667391 | 0.00592958,0.028285663 | 1.0034467,0.01699955"
       linejoin_type="round"
       miter_limit="4"
       not_jump="false"
       sort_points="true"
       message="&lt;b&gt;Ctrl + click&lt;/b&gt; on existing node and move it" />
    <inkscape:path-effect
       effect="powerstroke"
       id="path-effect113"
       is_visible="true"
       lpeversion="1.3"
       scale_width="1"
       interpolator_type="CentripetalCatmullRom"
       interpolator_beta="0.2"
       start_linecap_type="zerowidth"
       end_linecap_type="zerowidth"
       offset_points="2.001006,0.026899537 | 2.9770505,0.0092368096 | 2.7726629,0.013956292 | 3.0343952,0.0096950026 | 3.2266173,0.013667391 | 0.00592958,0.028285663 | 1.0034467,0.01699955"
       linejoin_type="round"
       miter_limit="4"
       not_jump="false"
       sort_points="true"
       message="&lt;b&gt;Ctrl + click&lt;/b&gt; on existing node and move it" />
    <inkscape:path-effect
       effect="powerstroke"
       id="path-effect111"
       is_visible="true"
       lpeversion="1.3"
       scale_width="1"
       interpolator_type="CentripetalCatmullRom"
       interpolator_beta="0.2"
       start_linecap_type="butt"
       end_linecap_type="round"
       offset_points="0.19491179,0.019596486 | 0.50106835,0.029654352 | 0.8,0.039999999 | 0.9983071,0.011849122"
       linejoin_type="round"
       miter_limit="4"
       not_jump="false"
       sort_points="true"
       message="&lt;b&gt;Ctrl + click&lt;/b&gt; on existing node and move it" />
    <inkscape:path-effect
       effect="powerstroke"
       id="path-effect109"
       is_visible="true"
       lpeversion="1.3"
       scale_width="1"
       interpolator_type="CentripetalCatmullRom"
       interpolator_beta="0.2"
       start_linecap_type="butt"
       end_linecap_type="round"
       offset_points="0.19491179,0.019596486 | 0.50106835,0.029654352 | 0.8,0.039999999 | 0.9983071,0.011849122"
       linejoin_type="round"
       miter_limit="4"
       not_jump="false"
       sort_points="true"
       message="&lt;b&gt;Ctrl + click&lt;/b&gt; on existing node and move it" />
    <inkscape:path-effect
       effect="powerstroke"
       id="path-effect1"
       is_visible="true"
       lpeversion="1.3"
       scale_width="1"
       interpolator_type="CentripetalCatmullRom"
       interpolator_beta="0.2"
       start_linecap_type="zerowidth"
       end_linecap_type="zerowidth"
       offset_points="2.001006,0.026899537 | 2.9770505,0.0092368096 | 2.7726629,0.013956292 | 3.0343952,0.0096950026 | 3.2266173,0.013667391 | 0.00592958,0.028285663 | 1.0034467,0.01699955"
       linejoin_type="round"
       miter_limit="4"
       not_jump="false"
       sort_points="true"
       message="&lt;b&gt;Ctrl + click&lt;/b&gt; on existing node and move it" />
    <inkscape:path-effect
       effect="powerstroke"
       id="path-effect5"
       is_visible="true"
       lpeversion="1.3"
       scale_width="1"
       interpolator_type="CentripetalCatmullRom"
       interpolator_beta="0.2"
       start_linecap_type="butt"
       end_linecap_type="round"
       offset_points="0.19491179,0.019596486 | 0.50106835,0.029654352 | 0.8,0.039999999 | 0.9983071,0.011849122"
       linejoin_type="round"
       miter_limit="4"
       not_jump="false"
       sort_points="true"
       message="&lt;b&gt;Ctrl + click&lt;/b&gt; on existing node and move it" />
    <rect
       x="19.756104"
       y="46.011887"
       width="115.36531"
       height="90.776581"
       id="rect55" />
    <rect
       x="19.756104"
       y="46.011887"
       width="182.14967"
       height="47.948803"
       id="rect55-6" />
    <rect
       x="19.756104"
       y="46.011887"
       width="176.88699"
       height="51.825665"
       id="rect57" />
    <clipPath
       clipPathUnits="userSpaceOnUse"
       id="clipPath2">
      <path
         d="M 0,5000 H 5000 V 0 H 0 Z"
         transform="translate(-3625.0001,-1375.0001)"
         id="path2-6" />
    </clipPath>
    <rect
       x="19.756104"
       y="46.011887"
       width="155.62259"
       height="65.467857"
       id="rect5" />
    <rect
       x="19.756104"
       y="46.011887"
       width="176.88699"
       height="51.825665"
       id="rect120" />
    <rect
       x="19.756104"
       y="46.011887"
       width="182.14967"
       height="47.948803"
       id="rect121" />
    <rect
       x="19.756104"
       y="46.011887"
       width="201.54099"
       height="48.627068"
       id="rect122" />
    <rect
       x="19.756104"
       y="46.011887"
       width="176.88699"
       height="51.825665"
       id="rect57-1" />
    <rect
       x="19.756104"
       y="46.011887"
       width="176.88699"
       height="51.825665"
       id="rect120-7" />
    <inkscape:path-effect
       effect="powerstroke"
       id="path-effect5-3"
       is_visible="true"
       lpeversion="1.3"
       scale_width="1"
       interpolator_type="CentripetalCatmullRom"
       interpolator_beta="0.2"
       start_linecap_type="butt"
       end_linecap_type="round"
       offset_points="0.19491179,0.019596486 | 0.50106835,0.029654352 | 0.8,0.039999999 | 0.9983071,0.011849122"
       linejoin_type="round"
       miter_limit="4"
       not_jump="false"
       sort_points="true"
       message="&lt;b&gt;Ctrl + click&lt;/b&gt; on existing node and move it" />
    <inkscape:path-effect
       effect="powerstroke"
       id="path-effect1-9"
       is_visible="true"
       lpeversion="1.3"
       scale_width="1"
       interpolator_type="CentripetalCatmullRom"
       interpolator_beta="0.2"
       start_linecap_type="zerowidth"
       end_linecap_type="zerowidth"
       offset_points="2.001006,0.026899537 | 2.9770505,0.0092368096 | 2.7726629,0.013956292 | 3.0343952,0.0096950026 | 3.2266173,0.013667391 | 0.00592958,0.028285663 | 1.0034467,0.01699955"
       linejoin_type="round"
       miter_limit="4"
       not_jump="false"
       sort_points="true"
       message="&lt;b&gt;Ctrl + click&lt;/b&gt; on existing node and move it" />
    <inkscape:path-effect
       effect="powerstroke"
       id="path-effect1-9-0"
       is_visible="true"
       lpeversion="1.3"
       scale_width="1"
       interpolator_type="CentripetalCatmullRom"
       interpolator_beta="0.2"
       start_linecap_type="zerowidth"
       end_linecap_type="zerowidth"
       offset_points="2.001006,0.026899537 | 2.9770505,0.0092368096 | 2.7726629,0.013956292 | 3.0343952,0.0096950026 | 3.2266173,0.013667391 | 0.00592958,0.028285663 | 1.0034467,0.01699955"
       linejoin_type="round"
       miter_limit="4"
       not_jump="false"
       sort_points="true"
       message="&lt;b&gt;Ctrl + click&lt;/b&gt; on existing node and move it" />
    <inkscape:path-effect
       effect="powerstroke"
       id="path-effect5-3-2"
       is_visible="true"
       lpeversion="1.3"
       scale_width="1"
       interpolator_type="CentripetalCatmullRom"
       interpolator_beta="0.2"
       start_linecap_type="butt"
       end_linecap_type="round"
       offset_points="0.19491179,0.019596486 | 0.50106835,0.029654352 | 0.8,0.039999999 | 0.9983071,0.011849122"
       linejoin_type="round"
       miter_limit="4"
       not_jump="false"
       sort_points="true"
       message="&lt;b&gt;Ctrl + click&lt;/b&gt; on existing node and move it" />
  </defs>
  <g
     inkscape:groupmode="layer"
     id="layer4"
     inkscape:label="Logo"
     transform="translate(-0.07491752,-0.12273489)">
    <g
       id="g9"
       style="display:inline"
       transform="translate(0.00104749,-0.1524773)">
      <path
         id="path5"
         clip-path="url(#clipPath2)"
         style="fill:#ffffff;fill-opacity:1;fill-rule:nonzero;stroke:none"
         d="M -1124.9861 3375.0276 C -2056.9672 3375.0276 -2488.3034 2619.522 -2488.3034 1687.541 L -2488.3034 309.2077 L -3001.1054 -84.447586 C -3102.9744 -162.63208 -3213.3395 -228.22844 -3001.1054 -228.22844 L -1981.2919 -228.22844 C -1920.905 -135.60026 -1844.5767 -54.143627 -1753.4998 16.051793 C -1632.7818 108.71801 -1501.1302 167.92143 -1355.1337 197.02919 C -1215.303 224.9049 -1069.6951 229.5582 -932.42777 200.56237 C -797.25198 172.00869 -672.69884 110.46969 -557.81241 35.680578 C -506.46106 2.251588 -451.5104 -33.425503 -405.98376 -74.633194 C -282.46467 4.3772423 -151.63924 76.031762 -29.307373 154.92545 C 58.804958 232.21967 148.58806 313.35928 239.11626 395.37806 L 239.11626 1684.6948 C 239.11626 2616.6759 -193.00508 3375.0276 -1124.9861 3375.0276 z M -1124.9861 2812.4666 C -504.67377 2812.4666 0.037660635 2307.8774 0.037660635 1687.541 L 0.037660635 307.83368 L -2250.01 307.83368 L -2250.01 1687.541 C -2250.01 2307.8774 -1745.2985 2812.4666 -1124.9861 2812.4666 z M 258.94133 291.14921 C 181.27759 221.83239 102.37302 150.56792 26.340232 83.869245 L 16.231408 76.017731 C -116.96552 -9.891081 -248.80311 -101.63912 -383.01808 -187.49871 L -403.33387 -203.39802 L -437.29167 -180.92306 C -489.17943 -129.78197 -552.67817 -79.373694 -612.87115 -40.184676 C -718.09439 28.316258 -830.36668 76.205927 -953.52871 102.22216 C -1078.6054 128.63974 -1211.4526 137.53097 -1337.8603 112.33098 C -1469.8404 86.01843 -1589.0355 28.526322 -1697.8522 -55.004409 C -1762.0794 -104.50593 -1815.9515 -163.87289 -1862.5377 -228.22844 L -1492.7314 -228.22844 C -1425.4401 -187.51128 -1354.2142 -158.84405 -1276.0296 -133.91212 C -1194.988 -108.067 -1111.1368 -81.861188 -1021.935 -82.28842 C -1009.4843 -82.352125 -998.82362 -85.923103 -985.71992 -86.606753 C -884.52208 -91.974976 -778.13416 -112.42441 -682.65148 -160.2147 C -646.57916 -178.24878 -613.75862 -203.25329 -580.67994 -227.73772 L -579.6985 -228.62101 L -14.880216 -229.60245 C 104.46402 -128.44714 223.36083 -28.254303 336.08246 64.534892 C 375.16706 91.138401 413.59558 117.04229 451.99043 143.05003 L 258.94133 291.14921 z M 528.24826 84.458108 C 482.11723 54.025763 435.88682 23.596863 391.63192 -6.52131 C 305.95905 -77.043596 216.15456 -152.68839 125.26931 -229.89688 L 751.91827 -230.97647 C 940.60875 -231.31915 900.60568 -143.03327 751.91827 -87.195616 L 528.24826 84.458108 z M -1024.9775 -182.7878 C -1103.4564 -182.41129 -1168.6818 -197.80133 -1240.6978 -220.7695 C -1305.603 -241.46601 -1370.5513 -273.02352 -1430.2138 -310.08047 C -1401.8822 -373.04035 -1326.8721 -444.4395 -1124.9861 -444.4395 C -1050.2051 -444.4395 -993.07242 -434.23397 -948.8178 -418.43136 C -918.57324 -400.60117 -888.96862 -382.64999 -858.72168 -364.94292 C -805.53442 -313.47862 -801.30749 -251.88576 -801.30749 -228.22844 L -787.86177 -228.22844 C -853.23445 -204.45081 -922.76839 -190.70296 -988.76238 -187.20428 C -999.84161 -186.64492 -1013.5202 -182.86684 -1024.9775 -182.7878 z "
         transform="matrix(2.0729813e-4,0,0,-2.0729813e-4,0.72111971,1.621659)" />
      <path
         style="fill:#ffffff;fill-rule:nonzero;stroke:none;stroke-width:0.08;stroke-dasharray:none"
         d="m 0.8506248,1.0414292 c 0,-0.017335 -0.001185,-0.065465 0,-0.10401319 0.001487,-0.0483579 0.006636,-0.10924667 0.0100579,-0.16337812 0.003381,-0.0534944 0.0149873,-0.11212294 0.0103456,-0.15952259 -0.003842,-0.0392307 -0.0273695,-0.0998485 -0.0281509,-0.10582508 a 0.01185773,0.01185773 90 0 0 -0.0236982,-9.034e-4 c 0,1.5057e-4 7.097e-5,3.6056e-4 0,9.034e-4 -7.8134e-4,0.005977 -0.0243092,0.0665944 -0.0281509,0.10582508 -0.004642,0.0473997 0.006964,0.10602814 0.0103457,0.15952259 0.003422,0.0541314 0.008571,0.11502023 0.0100579,0.16337812 0.001185,0.0385482 0,0.0866777 0,0.10401319 z"
         id="path3"
         sodipodi:nodetypes="cc"
         transform="matrix(1.3676399,0,0,1.3676399,-0.64863809,-0.40365799)"
         inkscape:original-d="M 0.83102831,1.0414292 V 0.50778682"
         inkscape:path-effect="#path-effect5" />
      <path
         style="fill:#ffffff;fill-rule:nonzero;stroke:none;stroke-width:0.0674856;stroke-dasharray:none"
         id="path4"
         transform="matrix(1.3676399,0,0,1.3676399,-0.64863809,-0.45967032)"
         d="m 0.9371946,0.69817132 c -1.961e-5,1.7482e-4 -1.0089e-4,3.9889e-4 -1.2271e-4,0.001046 -1.047e-4,0.003107 0.001657,0.0202965 -0.005231,0.0415292 -0.003995,0.0123156 -0.0106815,0.0252982 -0.0209705,0.0372665 -0.009512,0.0110645 -0.0213092,0.020309 -0.0347714,0.0268695 -0.0150189,0.007319 -0.0305648,0.0105523 -0.0450706,0.0106204 -0.0165559,-3.131e-5 -0.0316399,-0.003892 -0.0450705,-0.0106206 -0.0135096,-0.006768 -0.025054,-0.0162759 -0.0342905,-0.0273503 -0.009382,-0.0112483 -0.0162394,-0.0239157 -0.0207934,-0.0370639 -0.004735,-0.0136713 -0.007009,-0.0279045 -0.007277,-0.0422972 -2.5565e-4,-0.0146556 0.00169,-0.0289401 0.006156,-0.0427713 0.004581,-0.0141875 0.0115552,-0.0270624 0.020316,-0.0381881 0.0106652,-0.0135442 0.0229124,-0.0231622 0.0342871,-0.0295389 0.018816,-0.009658 0.0323328,-0.0138025 0.0419307,-0.014511 0.00193,-1.4244e-4 0.00344,-1.603e-4 0.004742,-1.1622e-4 0.001966,6.659e-5 0.004146,3.1398e-4 0.007064,6.8286e-4 0.008841,0.001118 0.0216186,0.004445 0.0358165,0.011613 0.0146854,0.008001 0.02746,0.0172059 0.0387685,0.0311812 0.009521,0.0117667 0.0163601,0.0249145 0.0204645,0.0385229 0.005601,0.0185698 0.004992,0.0342655 0.004053,0.0431256 z m 0.056336,0 c -9.6059e-4,-0.0137426 -0.00426,-0.0365853 -0.01706,-0.0614523 -0.009264,-0.0179969 -0.0219047,-0.0339116 -0.0371134,-0.0468765 -0.0179542,-0.0153053 -0.0362424,-0.0237787 -0.0505374,-0.0284579 -0.001834,-6.0023e-4 -0.003571,-0.001128 -0.005195,-0.001593 -0.0185445,-0.005303 -0.0344947,-0.005472 -0.0444522,-0.005423 -0.003601,1.786e-5 -0.005682,1.8683e-4 -0.008144,2.597e-4 -0.001664,4.927e-5 -0.003038,5.994e-5 -0.005429,7.272e-5 -0.0104829,5.606e-5 -0.0276519,-7.8162e-4 -0.0474262,0.00488 -0.001635,4.6803e-4 -0.00332,9.7724e-4 -0.005051,0.001533 -0.0152325,0.004893 -0.0334888,0.0132806 -0.0511123,0.028039 -0.0144984,0.0121414 -0.0276795,0.027913 -0.0372619,0.0472113 -0.009375,0.0188797 -0.0146404,0.0398488 -0.0149538,0.0615388 -2.7418e-4,0.0219283 0.004578,0.0431629 0.0138328,0.0625484 0.008864,0.018567 0.0215131,0.0349298 0.0367845,0.0483356 0.0150384,0.0132013 0.0324214,0.0233742 0.0511089,0.0302276 0.018569,0.00681 0.0383557,0.0103179 0.0586457,0.0104876 0.0194595,7.325e-5 0.0396956,-0.002711 0.0603689,-0.0104877 0.0185061,-0.006962 0.0356935,-0.0173259 0.050628,-0.0307084 0.0161721,-0.0144915 0.0282185,-0.0311784 0.0366074,-0.0481329 0.0145384,-0.029383 0.0158981,-0.0558376 0.0158696,-0.0604122 z"
         sodipodi:type="arc"
         sodipodi:ry="0.13433424"
         sodipodi:rx="0.13433424"
         sodipodi:cy="0.69817132"
         sodipodi:cx="0.83102834"
         inkscape:path-effect="#path-effect1" />
    </g>
    <text
       xml:space="preserve"
       transform="matrix(0.01041667,0,0,0.01041667,-0.25504529,-0.10115873)"
       id="text55"
       style="font-style:normal;font-variant:normal;font-weight:normal;font-stretch:normal;font-size:21.3333px;line-height:0.9;font-family:'Otsutome_font Bold';-inkscape-font-specification:'Otsutome_font Bold, ';text-align:end;letter-spacing:0px;word-spacing:0px;white-space:pre;shape-inside:url(#rect55);display:inline;fill:#ffffff;fill-opacity:1;stroke:none;stroke-width:2.26772;stroke-dasharray:none;stroke-opacity:1;paint-order:stroke fill markers"
       x="57.035694"
       y="0"><tspan
         x="102.55464"
         y="62.33633"
         id="tspan3"><tspan
           style="font-family:'Lucid Type A BRK';-inkscape-font-specification:'Lucid Type A BRK';letter-spacing:0.39px"
           id="tspan1">Sh</tspan><tspan
           dx="0.38999987"
           style="font-family:'Lucid Type A BRK';-inkscape-font-specification:'Lucid Type A BRK'"
           id="tspan2">ree&#10;</tspan></tspan><tspan
         x="84.220173"
         y="81.860935"
         id="tspan5"><tspan
           style="font-family:'Lucid Type A BRK';-inkscape-font-specification:'Lucid Type A BRK'"
           id="tspan4">Collective&#10;</tspan></tspan><tspan
         x="113.91593"
         y="101.38554"
         id="tspan7"><tspan
           style="font-family:'Lucid Type A BRK';-inkscape-font-specification:'Lucid Type A BRK'"
           id="tspan6">Inc.</tspan></tspan></text>
    <g
       id="g108"
       transform="rotate(51.941539,-0.148441,2.0399547)"
       style="display:inline;stroke:#000000;stroke-width:0.02;stroke-dasharray:none">
      <g
         id="path103"
         transform="matrix(1.3676399,0,0,1.3676399,-1.1880355,-0.24116115)">
        <path
           id="path1"
           style="color:#000000;fill:#ffffff;stroke:none;-inkscape-stroke:none"
           d="M 0.70703064 0.57421787 C 0.70103964 0.58169866 0.69595751 0.59043807 0.69140752 0.59960206 C 0.68250662 0.61752595 0.67802219 0.63566737 0.67772488 0.65624315 C 0.67746498 0.67703363 0.68066322 0.69838538 0.68945221 0.71679496 C 0.697872 0.73443134 0.71005525 0.74892585 0.72461154 0.76170384 C 0.73894742 0.77428842 0.7555677 0.78446019 0.77343818 0.79101418 C 0.78331537 0.79463718 0.79415768 0.79715562 0.80469517 0.79882256 L 0.8105497 0.80078013 L 0.81054141 0.80663047 C 0.8127034 0.83778684 0.81474262 0.868618 0.81640962 0.89843507 L 0.8164021 0.90037516 C 0.8142091 0.92429904 0.81284001 0.9486063 0.81054601 0.97264708 L 0.81054523 0.97655732 L 0.80468992 0.97851 C 0.79373803 0.979924 0.78178867 0.98279221 0.77148718 0.9863142 C 0.7534798 0.9924715 0.73727363 1.001396 0.72266045 1.013664 C 0.70782046 1.026123 0.69434609 1.041147 0.6855421 1.058588 C 0.67635021 1.076798 0.67207411 1.0963955 0.67187538 1.1171875 C 0.67171878 1.1377625 0.67704125 1.157647 0.68554524 1.175765 C 0.69423943 1.19429 0.70522016 1.2108107 0.71874115 1.2226507 C 0.73518973 1.2370537 0.75315066 1.2449984 0.76758194 1.2499884 C 0.76921694 1.2505484 0.76991221 1.2514554 0.77148721 1.2519501 C 0.7869333 1.2567433 0.80208977 1.2556591 0.81250556 1.2558574 L 0.81836507 1.2558539 L 0.81835678 1.2617043 C 0.81893978 1.2646158 0.82015625 1.2655416 0.82226624 1.2656153 C 0.82437624 1.2656953 0.82734838 1.2665318 0.82813327 1.2636718 L 0.82812986 1.2578123 L 0.83398937 1.2578089 C 0.84373106 1.2579689 0.85730294 1.2580323 0.87303913 1.2539023 C 0.87457212 1.2535023 0.87712816 1.2524941 0.87890616 1.2519588 C 0.89256594 1.2478208 0.9103172 1.2407563 0.92773708 1.2265583 C 0.94248767 1.2145353 0.95368029 1.198594 0.96288528 1.181641 C 0.97560537 1.1582141 0.97925425 1.1361623 0.98046225 1.1230423 C 0.98054585 1.1200903 0.98002585 1.0927331 0.96680156 1.0644531 C 0.95915987 1.0481121 0.94872616 1.0317501 0.93359648 1.0175791 C 0.91962549 1.0044932 0.90423362 0.99531841 0.88672164 0.98828541 C 0.87713655 0.98443542 0.86683808 0.98226112 0.85742309 0.98046112 L 0.85155939 0.97851527 L 0.85155597 0.97265576 C 0.85002097 0.93597509 0.8485061 0.89787732 0.84765937 0.86327506 C 0.84893537 0.84414838 0.85023008 0.8258447 0.85156308 0.80664832 L 0.85156883 0.8007771 L 0.85742415 0.79882441 C 0.86751164 0.79725342 0.87833242 0.79490224 0.88866591 0.79101524 C 0.90633039 0.78436985 0.92128359 0.77449449 0.93553918 0.7617204 C 0.95097756 0.74788642 0.96270726 0.73297017 0.97070825 0.71680059 C 0.98412324 0.68968871 0.98625687 0.66438213 0.98632844 0.66014614 L 0.98632424 0.65819687 C 0.98540554 0.64505428 0.98290247 0.62330399 0.97070258 0.59960272 C 0.96187479 0.58245323 0.95003561 0.56702861 0.93555242 0.55468213 C 0.91844984 0.54010274 0.90027892 0.53178547 0.88671163 0.52734448 C 0.88497163 0.52677548 0.88240109 0.52582891 0.88085709 0.52538691 C 0.86589991 0.52111015 0.85338198 0.52158036 0.84374899 0.52148048 L 0.83788948 0.52148389 L 0.83788606 0.51562438 C 0.83750106 0.51440438 0.83619816 0.51265728 0.83593758 0.51171833 L 0.83593338 0.50976906 L 0.83593835 0.50780809 L 0.83398489 0.50586301 L 0.8320406 0.50390623 C 0.8307026 0.50385562 0.82887072 0.50329632 0.82813036 0.50390545 L 0.82811864 0.50389628 C 0.82737864 0.50450528 0.82625097 0.50568972 0.8261686 0.50781072 L 0.82617279 0.50975999 L 0.82617699 0.51170925 C 0.82589699 0.51268925 0.82461506 0.51435153 0.82421523 0.51561453 L 0.82226938 0.52147823 L 0.81835913 0.52147745 C 0.80822554 0.52148945 0.79380905 0.52122083 0.77929766 0.52537482 C 0.77774166 0.52581982 0.77704144 0.52680207 0.77538244 0.52733502 C 0.76084786 0.53200392 0.74332906 0.54063429 0.72656488 0.55467308 C 0.71967199 0.56044577 0.71302063 0.56673887 0.70703064 0.57421787 z M 0.74413532 0.57226479 C 0.75544101 0.5579072 0.76909554 0.54783777 0.78125553 0.54102078 C 0.79184332 0.53558599 0.80075282 0.53177758 0.80858782 0.52930058 L 0.8222644 0.52343921 L 0.81836519 0.53710672 C 0.81097489 0.5596692 0.80111151 0.59196993 0.79883251 0.61524001 C 0.79447422 0.65975295 0.80487405 0.71649711 0.80860004 0.76953495 L 0.80859097 0.77929554 L 0.79882618 0.7773372 C 0.79321759 0.7755892 0.78838518 0.77212393 0.78321019 0.76953193 C 0.7687389 0.76228214 0.75592441 0.75398063 0.74608842 0.74218745 C 0.73609933 0.73021136 0.72942677 0.71508586 0.72460578 0.70116608 C 0.71959378 0.68669679 0.71707045 0.67327868 0.71678977 0.65820529 C 0.71652077 0.64282131 0.71792655 0.62597499 0.72265455 0.61133241 C 0.72750564 0.59630862 0.73484633 0.58406228 0.74413532 0.57226479 z M 0.83983797 0.52538994 L 0.85351719 0.52929833 C 0.86066348 0.53130333 0.86833369 0.53275316 0.87695368 0.53710516 C 0.89214037 0.54537925 0.90595164 0.55546199 0.91796823 0.57031248 C 0.92808742 0.58281836 0.93507387 0.59682116 0.93945087 0.61133385 C 0.94542337 0.63113663 0.94631683 0.64878308 0.94531683 0.65820907 C 0.94521283 0.66131597 0.94681182 0.67848853 0.93945283 0.70117171 C 0.93518503 0.7143281 0.92698936 0.72941843 0.91601527 0.74218362 C 0.90586738 0.75398791 0.89328875 0.76251856 0.87890756 0.76952655 C 0.87354347 0.77214055 0.8686439 0.77568239 0.8632859 0.77734139 L 0.85352034 0.77929329 L 0.8535177 0.76952353 C 0.8572547 0.71652982 0.86763551 0.65970408 0.86328052 0.61523503 C 0.86100562 0.59200755 0.85114204 0.55966772 0.84375504 0.53710975 L 0.83983797 0.52538994 z M 0.73828924 1.0390687 C 0.73946024 1.0375887 0.74088255 1.03665 0.74218855 1.03515 C 0.75228514 1.023574 0.76466658 1.0127878 0.77929206 1.0058578 C 0.78481496 1.0032378 0.7908659 1.0016572 0.7968789 0.99999723 L 0.80859372 0.99804113 L 0.80664709 1.0078151 C 0.8011842 1.0588105 0.78992762 1.1134393 0.79297062 1.1562433 C 0.79481192 1.1821443 0.80567452 1.2176981 0.81249951 1.2402281 L 0.81640244 1.2539206 L 0.80273239 1.2500005 C 0.7942744 1.2473915 0.78521576 1.2427276 0.77343297 1.2363376 C 0.76142958 1.2292516 0.74926962 1.2196811 0.73828213 1.2050761 C 0.72925674 1.1930791 0.72130931 1.1791934 0.71679032 1.1640664 C 0.71238632 1.1493214 0.71032944 1.1325734 0.71093607 1.1172004 C 0.71154907 1.1021404 0.71537578 1.0885766 0.72070777 1.0742176 C 0.72519577 1.0621306 0.72990325 1.0496746 0.73828924 1.0390687 z M 0.85156466 0.99805479 L 0.86328291 1.0019582 C 0.8679208 1.0036082 0.87234562 1.0054367 0.87695461 1.0078067 C 0.8911743 1.0151337 0.9041769 1.0270243 0.91406389 1.0390522 C 0.92475278 1.0520552 0.93156534 1.0648764 0.93554234 1.0781243 C 0.94239833 1.1009643 0.93942381 1.1179835 0.93945981 1.1210935 L 0.93945229 1.1230336 C 0.94024529 1.1324886 0.94000202 1.1483034 0.93359503 1.1679664 C 0.92889853 1.1823794 0.92249823 1.1966961 0.91210674 1.2089741 C 0.89976895 1.2235511 0.88451042 1.2322907 0.86913874 1.2402307 C 0.85955345 1.2448107 0.85144051 1.2481875 0.84375152 1.2499975 L 0.83007073 1.2539096 L 0.83397912 1.2402303 C 0.84201131 1.2180364 0.85617844 1.181808 0.85937043 1.156255 C 0.86466303 1.1138905 0.85630176 1.0607506 0.85352076 1.0097696 L 0.85156466 0.99805479 z " />
      </g>
    </g>
    <g
       id="g115"
       transform="matrix(0.18870476,0,0,0.18870476,0.05899038,0.93923869)"
       style="display:inline">
      <path
         d="M 2.9775536,2.1215919 C 3.093531,2.0823946 3.187477,1.9522376 3.1874936,1.8307317 l 8.2e-6,-0.059896 H 2.2708349 1.3541679 v 0.056901 c 0,0.1273093 0.082694,0.2456938 0.2048613,0.2932789 l 0.060764,0.023668 0.6510419,-0.00214 c 0.5968764,-0.00196 0.6556741,-0.0037 0.7067187,-0.020955 z M 2.0416682,1.6704543 c 0.084368,-0.04003 0.1574948,-0.1041767 0.1951081,-0.1711467 0.015868,-0.028252 0.031202,-0.051372 0.034077,-0.051378 0.00287,-5.9e-6 0.016734,0.021682 0.0308,0.048196 0.037158,0.070044 0.1062201,0.1340136 0.1858836,0.1721775 0.1297045,0.062137 0.2995791,0.051024 0.4298656,-0.028121 0.096793,-0.058799 0.2146168,-0.1998296 0.1886449,-0.2258015 -0.021343,-0.021343 -0.1296274,-0.015162 -0.2050032,0.011702 -0.062462,0.022262 -0.091586,0.026064 -0.203125,0.026516 -0.071615,2.906e-4 -0.1395834,-0.00348 -0.1510418,-0.00839 -0.0317,-0.013564 -0.5153144,-0.00996 -0.6050156,0.00452 -0.096833,0.015621 -0.2061396,0.00761 -0.3009914,-0.022046 -0.072486,-0.022667 -0.1610027,-0.033549 -0.1955558,-0.024042 -0.030157,0.0083 -0.020867,0.041145 0.029631,0.1047691 0.078828,0.099318 0.1327519,0.1396627 0.2438063,0.1824093 0.035454,0.013647 0.072256,0.017399 0.1510417,0.015402 0.091699,-0.00232 0.1122706,-0.00649 0.1718746,-0.034767 z M 1.8854181,1.386307 c 0,-0.00524 -0.022266,-0.025987 -0.049479,-0.046101 C 1.7347029,1.2653804 1.6739849,1.1886505 1.6326721,1.0833356 1.6034807,1.0089211 1.5947395,0.96163941 1.5941448,0.87494125 l -3.935e-4,-0.0573526 -0.049479,-0.0224975 c -0.075433,-0.034298 -0.1540418,-0.0576141 -0.181256,-0.0537617 -0.023791,0.003368 -0.024451,0.006225 -0.023694,0.10242274 0.00168,0.21383731 0.1080315,0.41762471 0.2573729,0.49318451 0.082087,0.041532 0.2887233,0.076866 0.2887229,0.04937 z M 2.8784556,1.364297 C 2.9589547,1.3392657 3.0070738,1.3044305 3.0692025,1.2262079 3.151159,1.1230213 3.1896258,1.0149424 3.2036031,0.84858666 c 0.00948,-0.11283826 0.00172,-0.11960587 -0.1013282,-0.0883074 -0.041399,0.0125744 -0.09585,0.032536 -0.1210022,0.0443592 -0.040713,0.0191376 -0.045115,0.0245805 -0.040111,0.0496011 0.0084,0.0419997 -0.011248,0.16410534 -0.036863,0.22909614 -0.043821,0.1111827 -0.122296,0.2092979 -0.218955,0.2737538 -0.021239,0.014163 -0.035301,0.029099 -0.03125,0.033191 0.011606,0.011723 0.1573961,-0.00516 0.2243619,-0.025983 z M 2.117189,1.368926 C 2.120531,1.3655839 2.1050661,1.3446503 2.0828225,1.3224067 2.0071024,1.2466866 1.9698934,1.1433514 1.9671936,1.0012873 L 1.9656098,0.91794439 1.9224,0.88691344 C 1.8592511,0.84156333 1.7213114,0.78125216 1.6807387,0.78125216 c -0.020423,0 -0.018676,0.15762515 0.00255,0.22988024 0.058937,0.2006528 0.198666,0.3208275 0.4217496,0.3627286 0.00334,6.281e-4 0.00881,-0.00159 0.012153,-0.00493 z M 2.552085,1.341102 C 2.6695795,1.296224 2.745844,1.2321201 2.810885,1.1235671 2.844006,1.0682881 2.875002,0.93508324 2.875002,0.84802155 v -0.0757316 l -0.028646,0.00853 c -0.079737,0.0237438 -0.1555038,0.0586275 -0.2121735,0.0976865 l -0.062925,0.0433708 -0.00204,0.10937495 c -0.00183,0.098131 -0.00534,0.1163982 -0.034146,0.177692 -0.017661,0.037574 -0.051527,0.088728 -0.075259,0.1136747 -0.023731,0.024947 -0.043148,0.047151 -0.043148,0.049343 0,0.00843 0.080711,-0.00996 0.1354167,-0.03086 z M 2.3395845,1.334677 C 2.4021635,1.288606 2.4337435,1.250413 2.4655814,1.182294 2.4924924,1.124718 2.4947294,1.110357 2.4939784,1.0000022 2.493272,0.89616011 2.4892238,0.86911521 2.463575,0.79687716 2.4189854,0.67129442 2.3129279,0.49458228 2.2746511,0.48209352 2.2551732,0.47573842 2.1690584,0.59257627 2.1194168,0.69271047 2.0559924,0.82064665 2.0383986,0.89664449 2.0435812,1.0202872 c 0.00633,0.1510994 0.054816,0.2439514 0.1641889,0.3144487 0.058102,0.03745 0.080879,0.03744 0.1318144,-6.25e-5 z M 1.9994041,0.79948133 c 0.015897,-0.0536556 0.072211,-0.17410026 0.1092253,-0.23361268 l 0.02706,-0.0435084 -0.075657,-0.0738814 C 1.9902958,0.38037787 1.8316118,0.26223397 1.789349,0.24694803 1.767229,0.23894703 1.743567,0.27006943 1.727631,0.32812703 1.700525,0.42687203 1.681138,0.54232908 1.678569,0.62029442 l -0.00276,0.083834 0.060534,0.019001 c 0.06357,0.019954 0.181358,0.076361 0.2167844,0.10381514 0.029643,0.022972 0.031695,0.0217541 0.046278,-0.0274632 z m 0.648882,-0.007133 c 0.04735,-0.0225427 0.1153875,-0.0512393 0.1511948,-0.06377 l 0.065104,-0.0227832 -6.25e-5,-0.0534175 c -5.21e-5,-0.0476814 -0.00609,-0.0959224 -0.025088,-0.20042059 -0.011257,-0.0619264 -0.049943,-0.17601516 -0.0657,-0.19375631 -0.014708,-0.0165603 -0.01819,-0.0166347 -0.048437,-0.001034 -0.077918,0.0401875 -0.3190457,0.24118518 -0.3190457,0.26594946 0,0.005239 0.011155,0.0244477 0.024789,0.0426852 0.026345,0.0352406 0.088976,0.16343193 0.1116263,0.22847174 0.00748,0.0214844 0.014936,0.0390625 0.016566,0.0390625 0.00163,0 0.041703,-0.0184441 0.089053,-0.0409873 z M 2.2175559,0.42708538 c 0.0218,-0.0229167 0.045591,-0.0416667 0.05287,-0.0416667 0.00728,0 0.030372,0.01875 0.05132,0.0416667 0.020948,0.0229167 0.041331,0.0416667 0.045295,0.0416667 0.012967,0 0.090766,-0.0881679 0.091034,-0.10316566 C 2.4584339,0.34537931 2.391111,0.2268823 2.3347038,0.14843946 2.2847099,0.07891527 2.2618381,0.06918527 2.2367607,0.10677278 c -0.0086,0.0128906 -0.027478,0.0370395 -0.041951,0.0536642 -0.014473,0.0166247 -0.032577,0.0424059 -0.040232,0.0572917 -0.00766,0.0148857 -0.016383,0.0294088 -0.019394,0.0322733 -0.00301,0.002865 -0.018253,0.0302491 -0.033869,0.0608544 l -0.028394,0.0556462 0.044269,0.0506557 c 0.024348,0.0278606 0.047973,0.0508668 0.052499,0.0511247 0.00453,2.5833e-4 0.026066,-0.018281 0.047866,-0.0411976 z"
         style="display:inline;fill:#ffffff;stroke-width:0.0104167"
         id="path1-05" />
    </g>
  </g>
</svg>
